<?xml version="1.0" encoding="UTF-8" ?>
<!DOCTYPE svg PUBLIC "-//W3C//DTD SVG 1.1//EN" "http://www.w3.org/Graphics/SVG/1.1/DTD/svg11.dtd">
<svg width="800pt" height="804pt" viewBox="0 0 800 804" version="1.1" xmlns="http://www.w3.org/2000/svg">
<g id="#0c1974ff">
<path fill="#0c1974" opacity="1.00" d=" M 376.47 0.00 L 400.00 0.00 L 400.03 1.01 C 400.79 25.55 400.52 50.11 400.15 74.65 C 399.85 101.50 400.11 128.37 400.01 155.23 C 399.88 182.20 400.24 209.17 399.82 236.14 C 398.92 263.06 399.45 289.99 399.08 316.92 C 397.32 342.58 401.60 368.52 396.99 394.00 C 360.99 393.77 324.97 393.05 288.98 394.34 C 281.12 394.83 273.23 394.27 265.36 394.41 C 253.13 393.89 240.87 393.93 228.63 394.12 C 195.76 393.88 162.88 393.92 130.01 393.93 C 118.32 393.80 106.62 394.23 94.94 393.59 C 63.62 393.38 32.30 393.63 0.99 393.51 C 1.15 387.99 0.73 382.46 1.21 376.95 C 5.66 282.76 45.75 190.91 111.06 123.01 C 114.77 118.75 118.78 114.75 123.03 111.04 C 152.17 82.46 186.10 58.84 222.73 40.88 C 270.60 17.20 323.24 3.62 376.47 0.00 M 306.69 28.98 C 300.67 45.12 296.13 61.75 290.25 77.93 C 273.46 77.83 256.66 77.56 239.87 77.60 C 253.28 88.34 266.90 98.83 280.62 109.17 C 276.31 125.10 270.68 140.64 266.56 156.62 C 280.44 147.81 293.11 137.23 307.01 128.44 C 320.15 137.35 332.65 147.22 346.21 155.49 C 342.07 139.86 336.56 124.64 332.38 109.02 C 344.89 98.10 358.63 88.73 371.47 78.22 C 355.25 77.96 339.02 78.03 322.80 78.03 C 318.04 62.22 312.43 46.67 307.68 30.85 C 307.49 30.15 307.16 29.53 306.69 28.98 M 200.20 125.22 C 194.51 139.51 191.41 154.75 184.83 168.69 C 169.07 174.08 152.43 169.86 136.28 170.03 C 140.56 179.66 150.70 184.14 158.52 190.37 C 163.96 194.86 169.69 199.16 174.73 204.05 C 170.52 219.82 164.50 235.10 160.93 251.05 C 174.72 242.44 187.56 232.42 201.03 223.33 C 214.90 232.06 227.66 242.45 241.65 250.99 C 237.30 235.19 232.02 219.67 227.44 203.93 C 240.15 192.85 254.08 183.23 266.61 171.93 C 250.26 171.10 233.89 171.85 217.54 171.35 C 211.68 155.28 207.43 138.69 201.63 122.59 C 201.07 123.43 200.59 124.30 200.20 125.22 M 306.23 235.88 C 297.95 250.15 295.86 266.82 289.86 282.00 C 273.60 284.04 257.20 283.05 240.87 283.51 C 253.08 294.42 266.60 303.77 279.43 313.94 C 275.09 329.83 269.22 345.26 265.11 361.20 C 279.33 353.32 291.47 342.34 304.99 333.39 C 318.40 341.93 331.00 351.65 344.19 360.50 C 341.23 345.27 335.59 330.76 330.91 316.01 C 341.26 302.73 356.83 295.14 368.79 283.56 C 352.84 283.55 336.67 284.28 320.89 282.17 C 315.73 266.83 310.44 251.52 306.23 235.88 M 106.51 237.07 C 102.21 251.15 97.97 265.25 93.32 279.22 C 92.82 280.30 92.77 282.40 91.00 282.01 C 75.05 283.33 59.03 284.46 43.03 283.54 C 55.62 293.46 68.61 302.90 81.08 313.00 C 79.99 329.96 72.50 345.48 67.74 361.55 C 81.11 352.30 94.07 342.41 108.19 334.29 C 121.96 343.35 134.65 354.00 148.70 362.66 C 145.41 346.18 139.14 330.50 134.42 314.41 C 145.23 305.54 156.61 297.37 167.19 288.23 C 168.90 286.65 170.99 285.38 172.16 283.31 C 156.15 282.55 140.01 283.60 124.09 281.23 C 120.55 270.79 116.58 260.51 113.10 250.05 C 111.88 245.46 112.27 238.51 106.51 237.07 Z" />
<path fill="#0c1974" opacity="1.00" d=" M 22.18 532.77 C 22.98 534.74 23.82 536.68 24.61 538.65 C 49.75 539.00 74.88 538.50 100.02 538.82 C 78.87 548.64 58.02 559.08 37.28 569.72 C 37.81 571.19 38.35 572.68 38.91 574.16 C 32.16 560.89 26.56 547.00 22.18 532.77 Z" />
<path fill="#0c1974" opacity="1.00" d=" M 82.00 645.54 C 151.42 607.84 220.86 570.18 290.38 532.65 C 290.71 617.55 290.65 702.44 290.72 787.34 C 292.53 787.87 294.33 788.45 296.14 789.01 C 241.65 774.99 190.53 748.49 146.99 712.91 C 122.68 693.20 101.13 670.27 82.00 645.54 Z" />
<path fill="#0c1974" opacity="1.00" d=" M 533.49 543.73 C 562.69 557.13 591.34 571.70 620.22 585.78 C 654.50 602.82 688.84 619.72 723.42 636.14 C 712.90 650.21 702.02 664.04 689.90 676.78 C 646.80 722.85 592.52 758.17 533.19 779.52 C 533.22 700.93 533.59 622.33 533.49 543.73 Z" />
</g>
<g id="#ce0a1eff">
<path fill="#ce0a1e" opacity="1.00" d=" M 400.03 1.01 C 444.87 0.13 489.69 8.24 531.84 23.38 C 566.02 35.61 598.51 52.39 628.62 72.64 C 627.39 73.69 626.16 74.75 624.94 75.80 C 550.04 73.52 475.07 75.45 400.15 74.65 C 400.52 50.11 400.79 25.55 400.03 1.01 Z" />
<path fill="#ce0a1e" opacity="1.00" d=" M 400.01 155.23 C 452.01 155.31 504.00 154.97 556.00 154.86 C 577.32 154.99 598.66 154.56 619.98 155.18 C 649.48 155.07 678.99 155.33 708.49 155.05 C 710.51 155.09 712.53 155.37 714.55 155.62 C 732.36 180.00 748.94 205.52 760.93 233.32 C 760.67 234.41 760.41 235.50 760.16 236.60 C 734.76 236.57 709.36 236.16 683.96 236.36 C 669.32 237.02 654.67 236.35 640.03 236.78 C 559.96 236.67 479.89 236.07 399.82 236.14 C 400.24 209.17 399.88 182.20 400.01 155.23 Z" />
<path fill="#ce0a1e" opacity="1.00" d=" M 552.00 316.67 C 603.66 316.36 655.33 316.47 706.99 316.45 C 732.71 317.13 758.44 316.15 784.16 316.56 C 785.72 316.56 787.28 316.73 788.85 316.93 C 799.21 368.99 800.59 422.92 791.37 475.25 C 739.59 475.33 687.80 475.05 636.02 474.83 C 584.35 474.84 532.69 474.75 481.03 474.83 C 481.39 532.55 481.09 590.26 481.19 647.98 C 481.50 696.74 481.10 745.51 481.48 794.26 C 457.47 800.53 432.47 800.27 408.08 804.00 L 391.63 804.00 C 375.84 800.82 359.50 802.26 343.70 799.05 C 343.56 690.98 343.91 582.91 343.94 474.84 C 231.59 474.63 119.24 475.02 6.89 475.30 C 3.29 456.41 1.18 437.20 0.94 417.97 C 0.25 409.84 0.24 401.63 0.99 393.51 C 32.30 393.63 63.62 393.38 94.94 393.59 C 106.62 394.23 118.32 393.80 130.01 393.93 C 162.88 393.92 195.76 393.88 228.63 394.12 C 234.01 395.31 239.52 394.69 244.97 394.83 C 251.77 394.77 258.60 395.30 265.36 394.41 C 273.23 394.27 281.12 394.83 288.98 394.34 C 324.97 393.05 360.99 393.77 396.99 394.00 C 401.60 368.52 397.32 342.58 399.08 316.92 C 450.05 316.63 501.02 316.73 552.00 316.67 Z" />
<path fill="#ce0a1e" opacity="1.00" d=" M 650.60 523.11 C 680.74 522.69 710.89 523.06 741.03 522.89 C 745.68 522.86 750.48 522.30 754.99 523.77 C 762.49 526.04 768.88 530.75 775.98 533.94 C 770.43 549.95 763.90 565.59 756.46 580.81 C 721.05 561.82 685.77 542.56 650.60 523.11 Z" />
<path fill="#ce0a1e" opacity="1.00" d=" M 173.92 526.89 C 174.96 526.40 175.99 525.83 177.13 525.60 C 211.35 524.64 245.61 524.92 279.85 525.59 C 256.33 538.01 233.13 551.05 209.72 563.68 C 174.82 582.80 139.85 601.79 104.93 620.86 C 95.05 625.97 85.55 631.88 75.45 636.54 C 64.71 621.77 55.17 606.18 46.62 590.05 C 89.18 569.24 131.37 547.70 173.92 526.89 Z" />
</g>
<g id="#ffffffff">
<path fill="#ffffff" opacity="1.00" d=" M 306.69 28.98 C 307.16 29.53 307.49 30.15 307.68 30.85 C 312.43 46.67 318.04 62.22 322.80 78.03 C 339.02 78.03 355.25 77.96 371.47 78.22 C 358.63 88.73 344.89 98.10 332.38 109.02 C 336.56 124.64 342.07 139.86 346.21 155.49 C 332.65 147.22 320.15 137.35 307.01 128.44 C 293.11 137.23 280.44 147.81 266.56 156.62 C 270.68 140.64 276.31 125.10 280.62 109.17 C 266.90 98.83 253.28 88.34 239.87 77.60 C 256.66 77.56 273.46 77.83 290.25 77.93 C 296.13 61.75 300.67 45.12 306.69 28.98 Z" />
<path fill="#ffffff" opacity="1.00" d=" M 400.15 74.65 C 475.07 75.45 550.04 73.52 624.94 75.80 C 656.52 97.86 684.65 124.81 708.49 155.05 C 678.99 155.33 649.48 155.07 619.98 155.18 C 598.66 154.56 577.32 154.99 556.00 154.86 C 504.00 154.97 452.01 155.31 400.01 155.23 C 400.11 128.37 399.85 101.50 400.15 74.65 Z" />
<path fill="#ffffff" opacity="1.00" d=" M 200.20 125.22 C 200.59 124.30 201.07 123.43 201.63 122.59 C 207.43 138.69 211.68 155.28 217.54 171.35 C 233.89 171.85 250.26 171.10 266.61 171.93 C 254.08 183.23 240.15 192.85 227.44 203.93 C 232.02 219.67 237.30 235.19 241.65 250.99 C 227.66 242.45 214.90 232.06 201.03 223.33 C 187.56 232.42 174.72 242.44 160.93 251.05 C 164.50 235.10 170.52 219.82 174.73 204.05 C 169.69 199.16 163.96 194.86 158.52 190.37 C 150.70 184.14 140.56 179.66 136.28 170.03 C 152.43 169.86 169.07 174.08 184.83 168.69 C 191.41 154.75 194.51 139.51 200.20 125.22 Z" />
<path fill="#ffffff" opacity="1.00" d=" M 306.23 235.88 C 310.44 251.52 315.73 266.83 320.89 282.17 C 336.67 284.28 352.84 283.55 368.79 283.56 C 356.83 295.14 341.26 302.73 330.91 316.01 C 335.59 330.76 341.23 345.27 344.19 360.50 C 331.00 351.65 318.40 341.93 304.99 333.39 C 291.47 342.34 279.33 353.32 265.11 361.20 C 269.22 345.26 275.09 329.83 279.43 313.94 C 266.60 303.77 253.08 294.42 240.87 283.51 C 257.20 283.05 273.60 284.04 289.86 282.00 C 295.86 266.82 297.95 250.15 306.23 235.88 Z" />
<path fill="#ffffff" opacity="1.00" d=" M 399.82 236.14 C 479.89 236.07 559.96 236.67 640.03 236.78 C 654.67 236.35 669.32 237.02 683.96 236.36 C 709.36 236.16 734.76 236.57 760.16 236.60 C 760.01 237.29 759.69 238.68 759.53 239.37 C 770.07 264.26 778.90 290.01 784.16 316.56 C 758.44 316.15 732.71 317.13 706.99 316.45 C 655.33 316.47 603.66 316.36 552.00 316.67 C 501.02 316.73 450.05 316.63 399.08 316.92 C 399.45 289.99 398.92 263.06 399.82 236.14 Z" />
<path fill="#ffffff" opacity="1.00" d=" M 106.51 237.07 C 112.27 238.51 111.88 245.46 113.10 250.05 C 116.58 260.51 120.55 270.79 124.09 281.23 C 140.01 283.60 156.15 282.55 172.16 283.31 C 170.99 285.38 168.90 286.65 167.19 288.23 C 156.61 297.37 145.23 305.54 134.42 314.41 C 139.14 330.50 145.41 346.18 148.70 362.66 C 134.65 354.00 121.96 343.35 108.19 334.29 C 94.07 342.41 81.11 352.30 67.74 361.55 C 72.50 345.48 79.99 329.96 81.08 313.00 C 68.61 302.90 55.62 293.46 43.03 283.54 C 59.03 284.46 75.05 283.33 91.00 282.01 C 92.77 282.40 92.82 280.30 93.32 279.22 C 97.97 265.25 102.21 251.15 106.51 237.07 Z" />
<path fill="#ffffff" opacity="1.00" d=" M 6.89 475.30 C 119.24 475.02 231.59 474.63 343.94 474.84 C 343.91 582.91 343.56 690.98 343.70 799.05 C 327.70 796.51 311.68 793.69 296.14 789.01 C 294.33 788.45 292.53 787.87 290.72 787.34 C 290.65 702.44 290.71 617.55 290.38 532.65 C 220.86 570.18 151.42 607.84 82.00 645.54 C 79.67 642.65 77.55 639.60 75.45 636.54 C 85.55 631.88 95.05 625.97 104.93 620.86 C 139.85 601.79 174.82 582.80 209.72 563.68 C 233.13 551.05 256.33 538.01 279.85 525.59 C 245.61 524.92 211.35 524.64 177.13 525.60 C 175.99 525.83 174.96 526.40 173.92 526.89 C 131.37 547.70 89.18 569.24 46.62 590.05 C 43.80 584.88 41.26 579.55 38.91 574.16 C 38.35 572.68 37.81 571.19 37.28 569.72 C 58.02 559.08 78.87 548.64 100.02 538.82 C 74.88 538.50 49.75 539.00 24.61 538.65 C 23.82 536.68 22.98 534.74 22.18 532.77 C 15.41 514.12 10.79 494.74 6.89 475.30 Z" />
<path fill="#ffffff" opacity="1.00" d=" M 481.03 474.83 C 532.69 474.75 584.35 474.84 636.02 474.83 C 687.80 475.05 739.59 475.33 791.37 475.25 C 787.41 495.09 782.58 514.81 775.98 533.94 C 768.88 530.75 762.49 526.04 754.99 523.77 C 750.48 522.30 745.68 522.86 741.03 522.89 C 710.89 523.06 680.74 522.69 650.60 523.11 C 685.77 542.56 721.05 561.82 756.46 580.81 C 746.98 600.09 735.70 618.51 723.42 636.14 C 688.84 619.72 654.50 602.82 620.22 585.78 C 591.34 571.70 562.69 557.13 533.49 543.73 C 533.59 622.33 533.22 700.93 533.19 779.52 C 516.33 785.61 498.93 790.21 481.48 794.26 C 481.10 745.51 481.50 696.74 481.19 647.98 C 481.09 590.26 481.39 532.55 481.03 474.83 Z" />
</g>
<g id="#af2041ff">
<path fill="#af2041" opacity="1.00" d=" M 228.63 394.12 C 240.87 393.93 253.13 393.89 265.36 394.41 C 258.60 395.30 251.77 394.77 244.97 394.83 C 239.52 394.69 234.01 395.31 228.63 394.12 Z" />
</g>
</svg>
