<?xml version="1.0" encoding="UTF-8" ?>
<!DOCTYPE svg PUBLIC "-//W3C//DTD SVG 1.1//EN" "http://www.w3.org/Graphics/SVG/1.1/DTD/svg11.dtd">
<svg width="953pt" height="953pt" viewBox="0 0 953 953" version="1.1" xmlns="http://www.w3.org/2000/svg">
<g id="#239f41ff">
<path fill="#239f41" opacity="1.00" d=" M 236.43 65.49 C 302.32 26.80 377.71 4.53 454.03 1.11 C 535.22 -2.81 617.36 14.38 689.95 51.02 C 753.11 82.72 809.00 128.73 852.36 184.53 C 877.10 216.33 897.80 251.27 913.74 288.28 C 916.72 295.53 920.05 302.70 922.32 310.20 L 921.95 310.70 C 624.96 310.65 327.97 310.64 30.98 310.71 L 30.66 310.18 C 36.14 294.23 43.25 278.84 50.69 263.70 C 91.71 181.52 157.10 111.78 236.43 65.49 Z" />
</g>
<g id="#ffffffff">
<path fill="#ffffff" opacity="1.00" d=" M 30.24 310.95 L 30.98 310.71 C 327.97 310.64 624.96 310.65 921.95 310.70 L 922.73 310.92 C 942.94 364.45 952.49 421.81 952.61 478.97 C 951.94 534.23 942.37 589.48 923.10 641.34 C 625.37 641.33 327.63 641.33 29.90 641.34 C -9.22 535.85 -9.26 416.32 30.24 310.95 M 446.09 367.37 C 444.06 375.29 448.83 384.10 456.56 386.73 C 463.41 389.80 471.22 386.75 476.41 381.93 C 479.20 384.06 482.02 386.39 485.49 387.32 C 493.98 389.86 504.05 384.53 506.46 375.95 C 507.37 373.13 507.07 370.17 506.40 367.35 C 505.79 367.34 504.57 367.33 503.96 367.32 C 500.65 371.70 496.83 376.71 490.94 377.33 C 485.05 378.01 480.20 373.83 476.40 369.88 C 472.67 373.82 467.88 377.92 462.07 377.34 C 456.05 376.84 452.17 371.71 448.78 367.30 C 448.11 367.32 446.77 367.35 446.09 367.37 M 476.36 385.82 C 472.40 390.19 468.00 394.15 463.05 397.37 C 461.75 398.07 462.29 399.81 462.12 401.01 C 462.30 422.28 461.98 443.55 462.30 464.82 C 463.72 494.24 464.95 523.67 466.00 553.11 C 462.20 549.50 458.36 545.94 454.57 542.34 C 442.31 530.37 432.36 515.95 426.01 500.01 C 419.01 482.71 416.96 463.54 419.64 445.10 C 422.18 426.99 428.98 409.72 437.95 393.86 C 417.43 408.71 407.53 433.75 403.37 457.94 C 398.21 483.49 403.43 511.16 418.57 532.51 C 428.52 547.12 441.68 559.51 456.82 568.64 C 442.96 574.61 427.66 575.05 412.83 575.80 C 430.04 581.54 448.87 583.18 466.59 578.77 C 468.24 580.92 469.89 583.08 471.50 585.28 C 474.72 585.37 477.94 585.33 481.16 585.33 C 483.28 583.25 484.41 579.01 487.93 579.38 C 492.32 579.75 496.63 580.79 501.04 581.06 C 514.15 582.13 527.36 579.88 539.81 575.81 C 525.03 574.91 509.74 574.65 495.95 568.59 C 520.06 554.00 539.92 531.17 547.84 503.82 C 553.91 482.22 551.34 459.06 544.59 437.94 C 539.01 420.92 529.71 404.26 514.70 393.87 C 528.32 417.00 536.43 444.10 533.78 471.09 C 531.88 491.76 523.55 511.60 510.89 527.98 C 503.96 537.36 495.40 545.28 486.74 553.02 C 487.48 529.31 488.83 505.62 489.78 481.92 C 491.09 453.92 490.23 425.88 490.56 397.86 C 485.21 394.64 480.63 390.33 476.36 385.82 M 427.56 391.37 C 413.71 395.97 400.37 402.61 389.48 412.44 C 375.64 424.56 366.08 441.44 362.70 459.52 C 359.49 477.48 361.50 496.41 368.89 513.13 C 376.39 530.45 389.08 545.54 405.07 555.61 C 400.73 547.08 395.13 539.17 391.84 530.12 C 384.75 513.77 381.25 495.80 382.23 477.98 C 384.15 444.27 402.91 413.57 427.56 391.37 M 524.64 390.87 C 543.13 407.46 558.39 428.33 565.82 452.23 C 570.58 466.97 571.60 482.73 569.87 498.07 C 567.30 518.70 558.53 538.02 547.62 555.53 C 551.82 552.46 556.25 549.68 560.13 546.20 C 586.83 522.93 598.39 483.50 587.58 449.65 C 581.69 429.72 567.25 413.07 549.67 402.36 C 541.92 397.32 533.14 394.32 524.64 390.87 Z" />
</g>
<g id="#db0100ff">
<path fill="#db0100" opacity="1.00" d=" M 446.09 367.37 C 446.77 367.35 448.11 367.32 448.78 367.30 C 452.17 371.71 456.05 376.84 462.07 377.34 C 467.88 377.92 472.67 373.82 476.40 369.88 C 480.20 373.83 485.05 378.01 490.94 377.33 C 496.83 376.71 500.65 371.70 503.96 367.32 C 504.57 367.33 505.79 367.34 506.40 367.35 C 507.07 370.17 507.37 373.13 506.46 375.95 C 504.05 384.53 493.98 389.86 485.49 387.32 C 482.02 386.39 479.20 384.06 476.41 381.93 C 471.22 386.75 463.41 389.80 456.56 386.73 C 448.83 384.10 444.06 375.29 446.09 367.37 Z" />
<path fill="#db0100" opacity="1.00" d=" M 476.36 385.82 C 480.63 390.33 485.21 394.64 490.56 397.86 C 490.23 425.88 491.09 453.92 489.78 481.92 C 488.83 505.62 487.48 529.31 486.74 553.02 C 495.40 545.28 503.96 537.36 510.89 527.98 C 523.55 511.60 531.88 491.76 533.78 471.09 C 536.43 444.10 528.32 417.00 514.70 393.87 C 529.71 404.26 539.01 420.92 544.59 437.94 C 551.34 459.06 553.91 482.22 547.84 503.82 C 539.92 531.17 520.06 554.00 495.95 568.59 C 509.74 574.65 525.03 574.91 539.81 575.81 C 527.36 579.88 514.15 582.13 501.04 581.06 C 496.63 580.79 492.32 579.75 487.93 579.38 C 484.41 579.01 483.28 583.25 481.16 585.33 C 477.94 585.33 474.72 585.37 471.50 585.28 C 469.89 583.08 468.24 580.92 466.59 578.77 C 448.87 583.18 430.04 581.54 412.83 575.80 C 427.66 575.05 442.96 574.61 456.82 568.64 C 441.68 559.51 428.52 547.12 418.57 532.51 C 403.43 511.16 398.21 483.49 403.37 457.94 C 407.53 433.75 417.43 408.71 437.95 393.86 C 428.98 409.72 422.18 426.99 419.64 445.10 C 416.96 463.54 419.01 482.71 426.01 500.01 C 432.36 515.95 442.31 530.37 454.57 542.34 C 458.36 545.94 462.20 549.50 466.00 553.11 C 464.95 523.67 463.72 494.24 462.30 464.82 C 461.98 443.55 462.30 422.28 462.12 401.01 C 462.29 399.81 461.75 398.07 463.05 397.37 C 468.00 394.15 472.40 390.19 476.36 385.82 Z" />
<path fill="#db0100" opacity="1.00" d=" M 427.56 391.37 C 402.91 413.57 384.15 444.27 382.23 477.98 C 381.25 495.80 384.75 513.77 391.84 530.12 C 395.13 539.17 400.73 547.08 405.07 555.61 C 389.08 545.54 376.39 530.45 368.89 513.13 C 361.50 496.41 359.49 477.48 362.70 459.52 C 366.08 441.44 375.64 424.56 389.48 412.44 C 400.37 402.61 413.71 395.97 427.56 391.37 Z" />
<path fill="#db0100" opacity="1.00" d=" M 524.64 390.87 C 533.14 394.32 541.92 397.32 549.67 402.36 C 567.25 413.07 581.69 429.72 587.58 449.65 C 598.39 483.50 586.83 522.93 560.13 546.20 C 556.25 549.68 551.82 552.46 547.62 555.53 C 558.53 538.02 567.30 518.70 569.87 498.07 C 571.60 482.73 570.58 466.97 565.82 452.23 C 558.39 428.33 543.13 407.46 524.64 390.87 Z" />
<path fill="#db0100" opacity="1.00" d=" M 29.90 641.34 C 327.63 641.33 625.37 641.33 923.10 641.34 C 895.58 716.08 848.79 783.56 788.65 835.76 C 728.04 888.59 653.83 925.71 575.11 942.19 C 544.51 948.72 513.26 951.85 482.00 952.58 C 417.70 953.00 353.21 940.94 293.84 916.10 C 228.16 888.84 168.84 846.53 121.50 793.48 C 81.81 749.09 50.51 697.21 29.90 641.34 Z" />
</g>
</svg>
