<?xml version="1.0" encoding="UTF-8" ?>
<!DOCTYPE svg PUBLIC "-//W3C//DTD SVG 1.1//EN" "http://www.w3.org/Graphics/SVG/1.1/DTD/svg11.dtd">
<svg width="953pt" height="953pt" viewBox="0 0 953 953" version="1.1" xmlns="http://www.w3.org/2000/svg">
<g id="#239f41ff">
<path fill="#239f41" opacity="1.00" d=" M 229.56 69.58 C 294.20 30.16 368.42 6.67 443.96 1.68 C 530.16 -4.30 617.94 13.59 694.66 53.42 C 784.41 99.60 858.66 175.13 903.29 265.66 C 885.73 265.66 868.18 265.68 850.63 265.69 C 850.51 268.10 850.44 270.51 850.39 272.92 C 869.21 273.30 888.05 272.97 906.88 273.09 C 908.05 275.55 909.24 278.00 910.19 280.56 C 905.14 280.58 900.09 280.63 895.05 280.53 C 894.89 283.02 894.88 285.51 895.00 288.00 C 899.87 288.00 904.75 287.98 909.62 288.03 C 909.61 290.45 909.55 292.88 909.39 295.30 C 902.16 295.21 894.94 295.23 887.72 295.29 C 887.32 290.34 887.37 285.38 887.31 280.43 C 875.02 280.35 862.73 280.60 850.44 280.69 C 850.52 287.98 850.56 295.28 850.42 302.58 C 852.88 302.65 855.34 302.68 857.82 302.69 C 857.84 297.81 857.82 292.94 857.84 288.07 C 865.22 287.92 872.61 288.03 880.00 288.00 C 880.00 292.86 879.97 297.73 880.03 302.59 C 892.40 302.85 904.77 302.53 917.14 302.75 C 917.24 300.56 917.34 298.36 917.07 296.18 C 919.37 301.97 921.79 307.72 923.74 313.63 C 923.76 314.89 923.76 316.16 923.76 317.43 C 921.78 317.41 919.82 317.41 917.87 317.41 C 917.81 315.25 917.77 313.10 917.74 310.95 C 895.03 311.21 872.31 310.46 849.61 311.32 C 849.59 313.36 849.58 315.40 849.57 317.45 C 847.65 317.43 845.75 317.41 843.85 317.40 C 843.80 315.24 843.76 313.08 843.72 310.93 C 821.01 311.00 798.30 310.74 775.60 311.06 C 775.61 313.18 775.60 315.31 775.59 317.44 C 773.66 317.42 771.75 317.41 769.84 317.40 C 769.83 315.24 769.82 313.08 769.83 310.92 C 747.04 311.08 724.24 310.61 701.46 311.21 C 701.53 313.24 701.60 315.27 701.69 317.31 C 699.64 317.34 697.61 317.39 695.58 317.44 C 695.58 315.30 695.59 313.17 695.63 311.04 C 672.89 311.01 650.14 310.51 627.42 311.30 C 627.41 313.36 627.41 315.42 627.41 317.49 C 625.47 317.45 623.54 317.41 621.61 317.38 C 621.57 315.27 621.56 313.16 621.58 311.06 C 598.83 310.91 576.07 310.69 553.32 311.20 C 553.36 313.27 553.40 315.34 553.45 317.42 C 551.52 317.41 549.59 317.41 547.68 317.42 C 547.63 315.28 547.60 313.15 547.57 311.02 C 524.85 311.02 502.13 310.72 479.42 311.05 C 479.33 313.24 479.24 315.43 479.15 317.63 C 477.19 317.48 475.23 317.32 473.28 317.16 C 473.31 315.07 473.33 312.99 473.34 310.91 C 450.61 311.18 427.87 310.43 405.15 311.29 C 405.16 313.30 405.20 315.32 405.27 317.34 C 403.33 317.42 401.38 317.44 399.44 317.42 C 399.37 315.25 399.30 313.09 399.23 310.92 C 376.57 310.93 353.90 310.87 331.24 310.95 C 331.20 313.11 331.17 315.27 331.14 317.44 C 329.24 317.42 327.35 317.41 325.46 317.41 C 325.41 315.23 325.36 313.07 325.31 310.90 C 302.57 311.25 279.82 310.52 257.08 311.20 C 257.09 313.27 257.10 315.34 257.11 317.42 C 255.13 317.41 253.16 317.41 251.19 317.42 C 251.14 315.24 251.09 313.08 251.05 310.91 C 228.38 311.17 205.69 310.45 183.02 311.27 C 182.98 313.35 182.93 315.42 182.89 317.51 C 180.96 317.45 179.04 317.38 177.12 317.33 C 177.12 315.19 177.10 313.05 177.07 310.92 C 154.39 310.91 131.71 310.91 109.03 310.92 C 108.98 313.10 108.93 315.28 108.88 317.46 C 106.98 317.44 105.08 317.42 103.19 317.41 C 103.17 315.24 103.16 313.07 103.15 310.91 C 80.39 311.24 57.61 310.53 34.85 311.18 C 34.83 313.25 34.82 315.32 34.81 317.39 C 32.92 317.42 31.03 317.46 29.13 317.52 C 29.06 316.82 28.90 315.43 28.83 314.73 C 30.64 308.64 33.83 302.97 35.14 296.75 C 35.31 296.64 35.65 296.43 35.82 296.33 C 35.85 296.50 35.91 296.85 35.94 297.02 C 35.74 298.84 35.54 300.67 35.35 302.51 C 42.84 302.82 50.33 302.61 57.82 302.67 C 57.83 300.20 57.83 297.72 57.83 295.25 C 52.95 295.24 48.06 295.25 43.18 295.24 C 43.11 292.83 43.04 290.42 42.98 288.01 C 50.38 288.00 57.78 287.99 65.18 288.01 C 65.33 292.89 65.29 297.78 65.24 302.67 C 77.65 302.56 90.06 302.90 102.46 302.50 C 102.12 290.22 102.52 277.94 102.24 265.67 C 99.80 265.67 97.36 265.67 94.92 265.67 C 94.90 275.50 94.93 285.33 94.91 295.17 C 92.49 295.21 90.07 295.24 87.64 295.27 C 87.05 285.39 87.60 275.50 87.32 265.62 C 84.88 265.67 82.44 265.72 80.00 265.77 C 79.95 275.60 80.09 285.44 79.93 295.27 C 77.56 295.23 75.20 295.19 72.84 295.15 C 72.82 285.35 72.84 275.55 72.83 265.76 C 70.34 265.71 67.85 265.67 65.35 265.65 C 65.28 270.64 65.40 275.65 64.97 280.63 C 57.58 280.49 50.19 280.72 42.80 280.34 C 43.86 277.82 45.19 275.42 46.02 272.81 L 46.42 272.85 C 50.21 273.26 54.02 273.06 57.83 273.07 C 57.83 270.60 57.83 268.14 57.82 265.67 C 55.16 265.66 52.50 265.61 49.85 265.71 C 49.68 265.98 49.35 266.52 49.18 266.79 C 88.90 185.66 152.35 116.42 229.56 69.58 M 806.17 265.60 C 805.96 270.60 806.22 275.62 805.92 280.63 C 796.11 280.49 786.30 280.68 776.49 280.53 C 776.34 287.91 776.45 295.29 776.24 302.67 C 783.67 302.62 791.10 302.75 798.54 302.79 C 798.45 300.28 798.42 297.78 798.42 295.28 C 793.58 295.20 788.75 295.32 783.92 295.17 C 783.91 292.78 783.91 290.39 783.92 288.01 C 791.30 288.00 798.68 288.00 806.07 288.00 C 806.17 292.90 805.95 297.80 806.08 302.70 C 818.35 302.69 830.63 302.53 842.90 302.85 C 842.98 290.43 842.99 278.01 842.85 265.60 C 840.42 265.68 838.01 265.74 835.59 265.77 C 835.48 275.61 835.78 285.47 835.39 295.31 C 833.01 295.30 830.63 295.23 828.28 295.01 C 828.40 285.26 828.30 275.51 828.33 265.77 C 825.82 265.69 823.33 265.65 820.84 265.66 C 820.63 275.57 821.25 285.51 820.45 295.38 C 818.07 295.28 815.70 295.20 813.34 294.95 C 813.51 285.20 813.37 275.44 813.42 265.69 C 810.99 265.69 808.57 265.65 806.17 265.60 M 109.76 265.67 C 109.75 268.14 109.74 270.61 109.75 273.08 C 141.86 273.09 173.96 273.09 206.06 273.08 C 206.08 270.63 206.12 268.19 206.18 265.75 C 174.04 265.58 141.90 265.70 109.76 265.67 M 213.34 265.77 C 213.34 270.66 213.29 275.55 213.36 280.44 C 203.50 280.83 193.62 280.37 183.75 280.69 C 183.83 287.93 183.98 295.18 183.68 302.41 C 191.10 303.23 198.59 302.40 206.03 302.73 C 206.19 300.23 206.11 297.74 206.03 295.25 C 201.11 295.26 196.19 295.26 191.27 295.15 C 191.19 292.79 191.16 290.43 191.18 288.07 C 198.56 287.94 205.95 288.02 213.33 288.00 C 213.34 292.86 213.33 297.71 213.33 302.56 C 225.75 302.90 238.17 302.62 250.59 302.66 C 250.51 290.34 250.72 278.01 250.48 265.69 C 248.02 265.68 245.56 265.67 243.10 265.67 C 242.91 275.53 243.29 285.40 242.86 295.26 C 240.46 295.25 238.07 295.21 235.68 295.11 C 235.54 285.28 235.91 275.43 235.48 265.61 C 233.05 265.62 230.62 265.69 228.21 265.85 C 228.30 275.62 228.23 285.39 228.24 295.16 C 225.82 295.23 223.40 295.27 220.98 295.27 C 220.33 285.38 221.07 275.47 220.56 265.58 C 218.15 265.68 215.74 265.74 213.34 265.77 M 257.76 265.75 C 257.74 268.16 257.74 270.58 257.75 272.99 C 289.83 273.25 321.91 272.91 353.99 273.17 C 354.00 270.67 354.00 268.17 354.00 265.67 C 321.92 265.68 289.83 265.62 257.76 265.75 M 361.59 265.68 C 361.57 270.59 361.60 275.50 361.56 280.42 C 351.69 280.73 341.80 280.51 331.92 280.59 C 331.98 287.96 331.76 295.34 332.04 302.72 C 339.36 302.63 346.68 302.66 354.00 302.70 C 354.05 300.20 354.02 297.71 353.94 295.22 C 349.10 295.14 344.24 295.56 339.42 294.96 C 339.51 292.67 339.51 290.39 339.43 288.11 C 346.83 287.91 354.23 287.97 361.63 288.08 C 361.49 292.86 361.71 297.65 361.47 302.43 C 373.79 303.02 386.16 302.42 398.50 302.75 C 398.64 290.38 398.51 278.01 398.39 265.64 C 395.95 265.68 393.52 265.72 391.08 265.77 C 391.08 275.60 391.09 285.43 391.08 295.26 C 388.69 295.24 386.30 295.20 383.92 295.15 C 383.91 285.35 383.92 275.56 383.92 265.77 C 381.45 265.70 378.98 265.65 376.52 265.61 C 376.08 275.50 376.75 285.41 376.18 295.30 C 373.78 295.24 371.39 295.19 369.01 295.13 C 368.94 285.31 369.11 275.49 368.91 265.67 C 366.46 265.66 364.02 265.66 361.59 265.68 M 406.00 265.76 C 406.05 268.19 406.08 270.64 406.10 273.08 C 438.15 273.08 470.20 273.09 502.25 273.08 C 502.25 270.61 502.25 268.14 502.24 265.67 C 470.16 265.71 438.08 265.57 406.00 265.76 M 509.79 265.67 C 509.60 270.58 509.47 275.50 509.52 280.41 C 499.68 280.77 489.84 280.42 480.00 280.68 C 480.06 288.00 479.88 295.31 480.10 302.62 C 487.48 302.73 494.86 302.57 502.24 302.76 C 502.25 300.26 502.25 297.76 502.25 295.26 C 497.37 295.24 492.48 295.25 487.61 295.25 C 487.52 292.83 487.49 290.42 487.49 288.00 C 494.88 288.03 502.28 287.92 509.67 288.06 C 509.74 292.88 509.86 297.71 509.49 302.53 C 521.90 302.85 534.32 302.57 546.74 302.67 C 546.80 290.36 546.68 278.06 546.80 265.75 C 544.36 265.66 541.91 265.65 539.48 265.67 C 539.24 275.49 539.60 285.32 539.31 295.15 C 536.90 295.21 534.50 295.26 532.11 295.28 C 531.59 285.41 531.92 275.52 531.84 265.65 C 529.40 265.70 526.97 265.72 524.54 265.71 C 524.25 275.55 524.51 285.41 524.41 295.26 C 522.02 295.26 519.63 295.22 517.25 295.14 C 517.25 285.34 517.25 275.55 517.25 265.76 C 514.76 265.68 512.27 265.65 509.79 265.67 M 554.18 273.08 C 586.34 272.97 618.51 273.31 650.66 272.91 C 650.61 270.51 650.57 268.12 650.49 265.73 C 618.48 265.52 586.47 265.86 554.46 265.55 C 554.05 268.04 554.13 270.56 554.18 273.08 M 657.76 265.77 C 657.73 270.71 657.76 275.65 657.74 280.59 C 647.90 280.66 638.05 280.40 628.22 280.74 C 628.31 288.04 628.18 295.33 628.29 302.63 C 635.72 302.91 643.15 302.61 650.58 302.66 C 650.58 300.19 650.58 297.73 650.59 295.27 C 645.62 295.24 640.64 295.28 635.67 295.14 C 635.66 292.79 635.66 290.44 635.67 288.10 C 643.03 287.92 650.41 287.99 657.78 288.05 C 657.69 292.82 657.84 297.61 657.66 302.38 C 670.07 303.04 682.52 302.45 694.94 302.71 C 695.07 290.39 694.97 278.08 695.00 265.76 C 692.52 265.68 690.04 265.65 687.57 265.66 C 687.32 275.55 687.77 285.44 687.24 295.32 C 684.85 295.25 682.47 295.18 680.09 295.10 C 680.07 285.29 680.09 275.48 680.08 265.67 C 677.60 265.65 675.12 265.68 672.65 265.76 C 672.83 275.51 672.72 285.25 672.72 295.00 C 670.30 295.30 667.86 295.30 665.43 295.26 C 664.98 285.40 665.23 275.52 665.17 265.65 C 662.69 265.68 660.22 265.72 657.76 265.77 M 702.21 265.74 C 702.23 268.16 702.25 270.57 702.26 272.99 C 734.37 273.12 766.49 273.19 798.59 272.96 C 798.51 270.52 798.47 268.08 798.45 265.65 C 766.37 265.71 734.29 265.60 702.21 265.74 M 257.75 280.69 C 257.71 287.93 257.82 295.18 257.69 302.42 C 260.15 302.67 262.63 302.72 265.11 302.78 C 265.38 297.88 265.38 292.97 265.28 288.07 C 272.68 287.98 280.09 287.89 287.49 288.12 C 287.44 292.93 287.58 297.75 287.43 302.56 C 299.82 302.71 312.21 302.83 324.60 302.65 C 324.42 295.28 324.56 287.92 324.53 280.55 C 317.07 280.66 309.60 280.46 302.14 280.71 C 302.21 283.09 302.24 285.49 302.25 287.88 C 307.22 288.06 312.19 287.98 317.17 288.01 C 317.17 290.41 317.16 292.83 317.15 295.24 C 309.76 295.22 302.38 295.33 295.01 295.18 C 294.95 290.23 295.11 285.28 294.90 280.34 C 282.52 280.90 270.13 280.34 257.75 280.69 M 109.75 280.59 C 109.84 287.96 109.53 295.34 109.76 302.72 C 112.26 302.68 114.75 302.66 117.25 302.66 C 117.25 297.78 117.27 292.90 117.23 288.03 C 124.60 287.97 131.96 288.01 139.32 288.00 C 139.50 292.88 139.39 297.76 139.35 302.64 C 151.50 302.66 163.67 302.73 175.82 302.62 L 176.21 302.24 C 176.55 295.03 176.14 287.82 176.25 280.61 C 168.88 280.41 161.52 280.49 154.15 280.61 C 154.16 283.06 154.18 285.52 154.23 287.97 C 159.10 288.03 163.97 287.97 168.84 288.02 C 168.83 290.42 168.83 292.83 168.83 295.24 C 161.47 295.25 154.11 295.29 146.76 295.15 C 146.78 290.34 146.65 285.53 146.87 280.72 C 134.50 280.40 122.12 280.67 109.75 280.59 M 405.99 280.69 C 406.11 287.99 406.12 295.30 405.98 302.61 C 408.46 302.66 410.93 302.69 413.42 302.66 C 413.41 297.81 413.44 292.97 413.39 288.12 C 420.79 287.96 428.21 287.85 435.60 288.17 C 435.49 292.95 435.70 297.74 435.47 302.52 C 447.88 302.90 460.31 302.43 472.73 302.85 C 472.91 295.43 472.80 288.01 472.84 280.60 C 465.38 280.58 457.93 280.55 450.48 280.63 C 450.46 283.03 450.47 285.43 450.45 287.84 C 455.35 288.18 460.26 287.93 465.17 287.98 C 465.13 290.40 465.10 292.82 465.06 295.24 C 457.77 295.25 450.48 295.26 443.19 295.24 C 442.92 290.38 442.95 285.52 443.11 280.66 C 430.73 280.39 418.36 280.55 405.99 280.69 M 554.04 280.64 C 554.27 287.98 554.12 295.33 554.18 302.67 C 556.67 302.67 559.17 302.66 561.67 302.66 C 561.67 297.77 561.66 292.89 561.67 288.00 C 569.06 288.04 576.45 287.90 583.84 288.09 C 583.78 292.88 583.95 297.67 583.70 302.46 C 596.03 302.95 608.39 302.52 620.74 302.67 C 620.65 295.27 620.98 287.86 620.57 280.47 C 613.24 280.72 605.90 280.51 598.57 280.59 C 598.60 283.05 598.64 285.53 598.69 288.00 C 603.57 288.00 608.45 287.99 613.33 288.00 C 613.33 290.41 613.33 292.82 613.31 295.24 C 605.93 295.23 598.54 295.33 591.17 295.13 C 591.17 290.28 591.13 285.44 591.26 280.59 C 578.86 280.61 566.45 280.51 554.04 280.64 M 702.14 280.72 C 702.34 288.00 702.26 295.29 702.17 302.57 C 704.64 302.61 707.11 302.66 709.59 302.73 C 709.56 297.82 709.57 292.91 709.69 288.00 C 717.10 288.01 724.51 287.98 731.92 288.01 C 732.00 292.92 731.71 297.85 732.10 302.75 C 744.38 302.58 756.67 302.68 768.95 302.70 C 769.05 295.34 768.98 287.97 768.99 280.61 C 761.56 280.50 754.13 280.57 746.71 280.68 C 746.92 282.95 745.41 286.64 748.00 287.89 C 752.54 288.22 757.11 287.78 761.66 288.12 C 761.62 290.53 761.63 292.95 761.39 295.35 C 754.23 295.06 747.05 295.44 739.90 295.17 C 738.90 290.58 739.81 285.40 739.49 280.59 C 727.04 280.63 714.59 280.44 702.14 280.72 M 124.58 295.64 C 124.46 297.94 124.38 300.25 124.40 302.56 C 126.89 302.60 129.37 302.66 131.86 302.73 C 131.82 300.21 131.79 297.70 131.75 295.19 C 129.35 295.13 126.94 295.11 124.58 295.64 M 272.74 295.31 C 272.72 297.76 272.69 300.20 272.65 302.65 C 275.11 302.65 277.58 302.67 280.05 302.72 C 280.17 300.22 280.12 297.71 280.06 295.21 C 277.62 295.22 275.18 295.25 272.74 295.31 M 717.21 295.27 C 717.15 297.73 717.13 300.20 717.14 302.66 C 719.62 302.67 722.11 302.67 724.60 302.66 C 724.54 300.19 724.51 297.73 724.50 295.27 C 722.06 295.24 719.63 295.24 717.21 295.27 M 865.35 295.26 C 865.30 297.72 865.27 300.19 865.24 302.66 C 867.76 302.67 870.29 302.67 872.84 302.67 C 872.80 300.19 872.76 297.72 872.73 295.24 C 870.26 295.24 867.80 295.25 865.35 295.26 M 420.92 295.26 C 420.85 297.72 420.82 300.19 420.82 302.66 C 423.34 302.67 425.86 302.67 428.38 302.67 C 428.34 300.20 428.32 297.72 428.33 295.26 C 425.86 295.24 423.39 295.24 420.92 295.26 M 568.93 295.31 C 568.90 297.72 568.87 300.14 568.82 302.56 C 571.32 302.62 573.82 302.65 576.33 302.67 C 576.27 300.19 576.22 297.70 576.18 295.22 C 573.76 295.22 571.34 295.25 568.93 295.31 Z" />
</g>
<g id="#ffffffff">
<path fill="#ffffff" opacity="1.00" d=" M 806.17 265.60 C 808.57 265.65 810.99 265.69 813.42 265.69 C 813.37 275.44 813.51 285.20 813.34 294.95 C 815.70 295.20 818.07 295.28 820.45 295.38 C 821.25 285.51 820.63 275.57 820.84 265.66 C 823.33 265.65 825.82 265.69 828.33 265.77 C 828.30 275.51 828.40 285.26 828.28 295.01 C 830.63 295.23 833.01 295.30 835.39 295.31 C 835.78 285.47 835.48 275.61 835.59 265.77 C 838.01 265.74 840.42 265.68 842.85 265.60 C 842.99 278.01 842.98 290.43 842.90 302.85 C 830.63 302.53 818.35 302.69 806.08 302.70 C 805.95 297.80 806.17 292.90 806.07 288.00 C 798.68 288.00 791.30 288.00 783.92 288.01 C 783.91 290.39 783.91 292.78 783.92 295.17 C 788.75 295.32 793.58 295.20 798.42 295.28 C 798.42 297.78 798.45 300.28 798.54 302.79 C 791.10 302.75 783.67 302.62 776.24 302.67 C 776.45 295.29 776.34 287.91 776.49 280.53 C 786.30 280.68 796.11 280.49 805.92 280.63 C 806.22 275.62 805.96 270.60 806.17 265.60 Z" />
<path fill="#ffffff" opacity="1.00" d=" M 49.85 265.71 C 52.50 265.61 55.16 265.66 57.82 265.67 C 57.83 268.14 57.83 270.60 57.83 273.07 C 54.02 273.06 50.21 273.26 46.42 272.85 C 47.22 270.77 48.09 268.73 49.18 266.79 C 49.35 266.52 49.68 265.98 49.85 265.71 Z" />
<path fill="#ffffff" opacity="1.00" d=" M 65.35 265.65 C 67.85 265.67 70.34 265.71 72.83 265.76 C 72.84 275.55 72.82 285.35 72.84 295.15 C 75.20 295.19 77.56 295.23 79.93 295.27 C 80.09 285.44 79.95 275.60 80.00 265.77 C 82.44 265.72 84.88 265.67 87.32 265.62 C 87.60 275.50 87.05 285.39 87.64 295.27 C 90.07 295.24 92.49 295.21 94.91 295.17 C 94.93 285.33 94.90 275.50 94.92 265.67 C 97.36 265.67 99.80 265.67 102.24 265.67 C 102.52 277.94 102.12 290.22 102.46 302.50 C 90.06 302.90 77.65 302.56 65.24 302.67 C 65.29 297.78 65.33 292.89 65.18 288.01 C 57.78 287.99 50.38 288.00 42.98 288.01 C 43.04 290.42 43.11 292.83 43.18 295.24 C 48.06 295.25 52.95 295.24 57.83 295.25 C 57.83 297.72 57.83 300.20 57.82 302.67 C 50.33 302.61 42.84 302.82 35.35 302.51 C 35.54 300.67 35.74 298.84 35.94 297.02 C 35.91 296.85 35.85 296.50 35.82 296.33 L 35.76 296.02 C 38.40 290.93 40.25 285.47 42.80 280.34 C 50.19 280.72 57.58 280.49 64.97 280.63 C 65.40 275.65 65.28 270.64 65.35 265.65 Z" />
<path fill="#ffffff" opacity="1.00" d=" M 109.76 265.67 C 141.90 265.70 174.04 265.58 206.18 265.75 C 206.12 268.19 206.08 270.63 206.06 273.08 C 173.96 273.09 141.86 273.09 109.75 273.08 C 109.74 270.61 109.75 268.14 109.76 265.67 Z" />
<path fill="#ffffff" opacity="1.00" d=" M 213.34 265.77 C 215.74 265.74 218.15 265.68 220.56 265.58 C 221.07 275.47 220.33 285.38 220.98 295.27 C 223.40 295.27 225.82 295.23 228.24 295.16 C 228.23 285.39 228.30 275.62 228.21 265.85 C 230.62 265.69 233.05 265.62 235.48 265.61 C 235.91 275.43 235.54 285.28 235.68 295.11 C 238.07 295.21 240.46 295.25 242.86 295.26 C 243.29 285.40 242.91 275.53 243.10 265.67 C 245.56 265.67 248.02 265.68 250.48 265.69 C 250.72 278.01 250.51 290.34 250.59 302.66 C 238.17 302.62 225.75 302.90 213.33 302.56 C 213.33 297.71 213.34 292.86 213.33 288.00 C 205.95 288.02 198.56 287.94 191.18 288.07 C 191.16 290.43 191.19 292.79 191.27 295.15 C 196.19 295.26 201.11 295.26 206.03 295.25 C 206.11 297.74 206.19 300.23 206.03 302.73 C 198.59 302.40 191.10 303.23 183.68 302.41 C 183.98 295.18 183.83 287.93 183.75 280.69 C 193.62 280.37 203.50 280.83 213.36 280.44 C 213.29 275.55 213.34 270.66 213.34 265.77 Z" />
<path fill="#ffffff" opacity="1.00" d=" M 257.76 265.75 C 289.83 265.62 321.92 265.68 354.00 265.67 C 354.00 268.17 354.00 270.67 353.99 273.17 C 321.91 272.91 289.83 273.25 257.75 272.99 C 257.74 270.58 257.74 268.16 257.76 265.75 Z" />
<path fill="#ffffff" opacity="1.00" d=" M 361.59 265.68 C 364.02 265.66 366.46 265.66 368.91 265.67 C 369.11 275.49 368.94 285.31 369.01 295.13 C 371.39 295.19 373.78 295.24 376.18 295.30 C 376.75 285.41 376.08 275.50 376.52 265.61 C 378.98 265.65 381.45 265.70 383.92 265.77 C 383.92 275.56 383.91 285.35 383.92 295.15 C 386.30 295.20 388.69 295.24 391.08 295.26 C 391.09 285.43 391.08 275.60 391.08 265.77 C 393.52 265.72 395.95 265.68 398.39 265.64 C 398.51 278.01 398.64 290.38 398.50 302.75 C 386.16 302.42 373.79 303.02 361.47 302.43 C 361.71 297.65 361.49 292.86 361.63 288.08 C 354.23 287.97 346.83 287.91 339.43 288.11 C 339.51 290.39 339.51 292.67 339.42 294.96 C 344.24 295.56 349.10 295.14 353.94 295.22 C 354.02 297.71 354.05 300.20 354.00 302.70 C 346.68 302.66 339.36 302.63 332.04 302.72 C 331.76 295.34 331.98 287.96 331.92 280.59 C 341.80 280.51 351.69 280.73 361.56 280.42 C 361.60 275.50 361.57 270.59 361.59 265.68 Z" />
<path fill="#ffffff" opacity="1.00" d=" M 406.00 265.76 C 438.08 265.57 470.16 265.71 502.24 265.67 C 502.25 268.14 502.25 270.61 502.25 273.08 C 470.20 273.09 438.15 273.08 406.10 273.08 C 406.08 270.64 406.05 268.19 406.00 265.76 Z" />
<path fill="#ffffff" opacity="1.00" d=" M 509.79 265.67 C 512.27 265.65 514.76 265.68 517.25 265.76 C 517.25 275.55 517.25 285.34 517.25 295.14 C 519.63 295.22 522.02 295.26 524.41 295.26 C 524.51 285.41 524.25 275.55 524.54 265.71 C 526.97 265.72 529.40 265.70 531.84 265.65 C 531.92 275.52 531.59 285.41 532.11 295.28 C 534.50 295.26 536.90 295.21 539.31 295.15 C 539.60 285.32 539.24 275.49 539.48 265.67 C 541.91 265.65 544.36 265.66 546.80 265.75 C 546.68 278.06 546.80 290.36 546.74 302.67 C 534.32 302.57 521.90 302.85 509.49 302.53 C 509.86 297.71 509.74 292.88 509.67 288.06 C 502.28 287.92 494.88 288.03 487.49 288.00 C 487.49 290.42 487.52 292.83 487.61 295.25 C 492.48 295.25 497.37 295.24 502.25 295.26 C 502.25 297.76 502.25 300.26 502.24 302.76 C 494.86 302.57 487.48 302.73 480.10 302.62 C 479.88 295.31 480.06 288.00 480.00 280.68 C 489.84 280.42 499.68 280.77 509.52 280.41 C 509.47 275.50 509.60 270.58 509.79 265.67 Z" />
<path fill="#ffffff" opacity="1.00" d=" M 554.18 273.08 C 554.13 270.56 554.05 268.04 554.46 265.55 C 586.47 265.86 618.48 265.52 650.49 265.73 C 650.57 268.12 650.61 270.51 650.66 272.91 C 618.51 273.31 586.34 272.97 554.18 273.08 Z" />
<path fill="#ffffff" opacity="1.00" d=" M 657.76 265.77 C 660.22 265.72 662.69 265.68 665.17 265.65 C 665.23 275.52 664.98 285.40 665.43 295.26 C 667.86 295.30 670.30 295.30 672.72 295.00 C 672.72 285.25 672.83 275.51 672.65 265.76 C 675.12 265.68 677.60 265.65 680.08 265.67 C 680.09 275.48 680.07 285.29 680.09 295.10 C 682.47 295.18 684.85 295.25 687.24 295.32 C 687.77 285.44 687.32 275.55 687.57 265.66 C 690.04 265.65 692.52 265.68 695.00 265.76 C 694.97 278.08 695.07 290.39 694.94 302.71 C 682.52 302.45 670.07 303.04 657.66 302.38 C 657.84 297.61 657.69 292.82 657.78 288.05 C 650.41 287.99 643.03 287.92 635.67 288.10 C 635.66 290.44 635.66 292.79 635.67 295.14 C 640.64 295.28 645.62 295.24 650.59 295.27 C 650.58 297.73 650.58 300.19 650.58 302.66 C 643.15 302.61 635.72 302.91 628.29 302.63 C 628.18 295.33 628.31 288.04 628.22 280.74 C 638.05 280.40 647.90 280.66 657.74 280.59 C 657.76 275.65 657.73 270.71 657.76 265.77 Z" />
<path fill="#ffffff" opacity="1.00" d=" M 702.21 265.74 C 734.29 265.60 766.37 265.71 798.45 265.65 C 798.47 268.08 798.51 270.52 798.59 272.96 C 766.49 273.19 734.37 273.12 702.26 272.99 C 702.25 270.57 702.23 268.16 702.21 265.74 Z" />
<path fill="#ffffff" opacity="1.00" d=" M 850.39 272.92 C 850.44 270.51 850.51 268.10 850.63 265.69 C 868.18 265.68 885.73 265.66 903.29 265.66 C 904.49 268.13 905.70 270.60 906.88 273.09 C 888.05 272.97 869.21 273.30 850.39 272.92 Z" />
<path fill="#ffffff" opacity="1.00" d=" M 257.75 280.69 C 270.13 280.34 282.52 280.90 294.90 280.34 C 295.11 285.28 294.95 290.23 295.01 295.18 C 302.38 295.33 309.76 295.22 317.15 295.24 C 317.16 292.83 317.17 290.41 317.17 288.01 C 312.19 287.98 307.22 288.06 302.25 287.88 C 302.24 285.49 302.21 283.09 302.14 280.71 C 309.60 280.46 317.07 280.66 324.53 280.55 C 324.56 287.92 324.42 295.28 324.60 302.65 C 312.21 302.83 299.82 302.71 287.43 302.56 C 287.58 297.75 287.44 292.93 287.49 288.12 C 280.09 287.89 272.68 287.98 265.28 288.07 C 265.38 292.97 265.38 297.88 265.11 302.78 C 262.63 302.72 260.15 302.67 257.69 302.42 C 257.82 295.18 257.71 287.93 257.75 280.69 Z" />
<path fill="#ffffff" opacity="1.00" d=" M 895.05 280.53 C 900.09 280.63 905.14 280.58 910.19 280.56 L 910.40 280.55 C 912.59 285.77 914.97 290.92 917.07 296.18 C 917.34 298.36 917.24 300.56 917.14 302.75 C 904.77 302.53 892.40 302.85 880.03 302.59 C 879.97 297.73 880.00 292.86 880.00 288.00 C 872.61 288.03 865.22 287.92 857.84 288.07 C 857.82 292.94 857.84 297.81 857.82 302.69 C 855.34 302.68 852.88 302.65 850.42 302.58 C 850.56 295.28 850.52 287.98 850.44 280.69 C 862.73 280.60 875.02 280.35 887.31 280.43 C 887.37 285.38 887.32 290.34 887.72 295.29 C 894.94 295.23 902.16 295.21 909.39 295.30 C 909.55 292.88 909.61 290.45 909.62 288.03 C 904.75 287.98 899.87 288.00 895.00 288.00 C 894.88 285.51 894.89 283.02 895.05 280.53 Z" />
<path fill="#ffffff" opacity="1.00" d=" M 109.75 280.59 C 122.12 280.67 134.50 280.40 146.87 280.72 C 146.65 285.53 146.78 290.34 146.76 295.15 C 154.11 295.29 161.47 295.25 168.83 295.24 C 168.83 292.83 168.83 290.42 168.84 288.02 C 163.97 287.97 159.10 288.03 154.23 287.97 C 154.18 285.52 154.16 283.06 154.15 280.61 C 161.52 280.49 168.88 280.41 176.25 280.61 C 176.14 287.82 176.55 295.03 176.21 302.24 L 175.82 302.62 C 163.67 302.73 151.50 302.66 139.35 302.64 C 139.39 297.76 139.50 292.88 139.32 288.00 C 131.96 288.01 124.60 287.97 117.23 288.03 C 117.27 292.90 117.25 297.78 117.25 302.66 C 114.75 302.66 112.26 302.68 109.76 302.72 C 109.53 295.34 109.84 287.96 109.75 280.59 Z" />
<path fill="#ffffff" opacity="1.00" d=" M 405.99 280.69 C 418.36 280.55 430.73 280.39 443.11 280.66 C 442.95 285.52 442.92 290.38 443.19 295.24 C 450.48 295.26 457.77 295.25 465.06 295.24 C 465.10 292.82 465.13 290.40 465.17 287.98 C 460.26 287.93 455.35 288.18 450.45 287.84 C 450.47 285.43 450.46 283.03 450.48 280.63 C 457.93 280.55 465.38 280.58 472.84 280.60 C 472.80 288.01 472.91 295.43 472.73 302.85 C 460.31 302.43 447.88 302.90 435.47 302.52 C 435.70 297.74 435.49 292.95 435.60 288.17 C 428.21 287.85 420.79 287.96 413.39 288.12 C 413.44 292.97 413.41 297.81 413.42 302.66 C 410.93 302.69 408.46 302.66 405.98 302.61 C 406.12 295.30 406.11 287.99 405.99 280.69 Z" />
<path fill="#ffffff" opacity="1.00" d=" M 554.04 280.64 C 566.45 280.51 578.86 280.61 591.26 280.59 C 591.13 285.44 591.17 290.28 591.17 295.13 C 598.54 295.33 605.93 295.23 613.31 295.24 C 613.33 292.82 613.33 290.41 613.33 288.00 C 608.45 287.99 603.57 288.00 598.69 288.00 C 598.64 285.53 598.60 283.05 598.57 280.59 C 605.90 280.51 613.24 280.72 620.57 280.47 C 620.98 287.86 620.65 295.27 620.74 302.67 C 608.39 302.52 596.03 302.95 583.70 302.46 C 583.95 297.67 583.78 292.88 583.84 288.09 C 576.45 287.90 569.06 288.04 561.67 288.00 C 561.66 292.89 561.67 297.77 561.67 302.66 C 559.17 302.66 556.67 302.67 554.18 302.67 C 554.12 295.33 554.27 287.98 554.04 280.64 Z" />
<path fill="#ffffff" opacity="1.00" d=" M 702.14 280.72 C 714.59 280.44 727.04 280.63 739.49 280.59 C 739.81 285.40 738.90 290.58 739.90 295.17 C 747.05 295.44 754.23 295.06 761.39 295.35 C 761.63 292.95 761.62 290.53 761.66 288.12 C 757.11 287.78 752.54 288.22 748.00 287.89 C 745.41 286.64 746.92 282.95 746.71 280.68 C 754.13 280.57 761.56 280.50 768.99 280.61 C 768.98 287.97 769.05 295.34 768.95 302.70 C 756.67 302.68 744.38 302.58 732.10 302.75 C 731.71 297.85 732.00 292.92 731.92 288.01 C 724.51 287.98 717.10 288.01 709.69 288.00 C 709.57 292.91 709.56 297.82 709.59 302.73 C 707.11 302.66 704.64 302.61 702.17 302.57 C 702.26 295.29 702.34 288.00 702.14 280.72 Z" />
<path fill="#ffffff" opacity="1.00" d=" M 124.58 295.64 C 126.94 295.11 129.35 295.13 131.75 295.19 C 131.79 297.70 131.82 300.21 131.86 302.73 C 129.37 302.66 126.89 302.60 124.40 302.56 C 124.38 300.25 124.46 297.94 124.58 295.64 Z" />
<path fill="#ffffff" opacity="1.00" d=" M 272.74 295.31 C 275.18 295.25 277.62 295.22 280.06 295.21 C 280.12 297.71 280.17 300.22 280.05 302.72 C 277.58 302.67 275.11 302.65 272.65 302.65 C 272.69 300.20 272.72 297.76 272.74 295.31 Z" />
<path fill="#ffffff" opacity="1.00" d=" M 717.21 295.27 C 719.63 295.24 722.06 295.24 724.50 295.27 C 724.51 297.73 724.54 300.19 724.60 302.66 C 722.11 302.67 719.62 302.67 717.14 302.66 C 717.13 300.20 717.15 297.73 717.21 295.27 Z" />
<path fill="#ffffff" opacity="1.00" d=" M 865.35 295.26 C 867.80 295.25 870.26 295.24 872.73 295.24 C 872.76 297.72 872.80 300.19 872.84 302.67 C 870.29 302.67 867.76 302.67 865.24 302.66 C 865.27 300.19 865.30 297.72 865.35 295.26 Z" />
<path fill="#ffffff" opacity="1.00" d=" M 420.92 295.26 C 423.39 295.24 425.86 295.24 428.33 295.26 C 428.32 297.72 428.34 300.20 428.38 302.67 C 425.86 302.67 423.34 302.67 420.82 302.66 C 420.82 300.19 420.85 297.72 420.92 295.26 Z" />
<path fill="#ffffff" opacity="1.00" d=" M 568.93 295.31 C 571.34 295.25 573.76 295.22 576.18 295.22 C 576.22 297.70 576.27 300.19 576.33 302.67 C 573.82 302.65 571.32 302.62 568.82 302.56 C 568.87 300.14 568.90 297.72 568.93 295.31 Z" />
<path fill="#ffffff" opacity="1.00" d=" M 34.85 311.18 C 57.61 310.53 80.39 311.24 103.15 310.91 C 103.16 313.07 103.17 315.24 103.19 317.41 C 105.08 317.42 106.98 317.44 108.88 317.46 C 108.93 315.28 108.98 313.10 109.03 310.92 C 131.71 310.91 154.39 310.91 177.07 310.92 C 177.10 313.05 177.12 315.19 177.12 317.33 C 179.04 317.38 180.96 317.45 182.89 317.51 C 182.93 315.42 182.98 313.35 183.02 311.27 C 205.69 310.45 228.38 311.17 251.05 310.91 C 251.09 313.08 251.14 315.24 251.19 317.42 C 253.16 317.41 255.13 317.41 257.11 317.42 C 257.10 315.34 257.09 313.27 257.08 311.20 C 279.82 310.52 302.57 311.25 325.31 310.90 C 325.36 313.07 325.41 315.23 325.46 317.41 C 327.35 317.41 329.24 317.42 331.14 317.44 C 331.17 315.27 331.20 313.11 331.24 310.95 C 353.90 310.87 376.57 310.93 399.23 310.92 C 399.30 313.09 399.37 315.25 399.44 317.42 C 401.38 317.44 403.33 317.42 405.27 317.34 C 405.20 315.32 405.16 313.30 405.15 311.29 C 427.87 310.43 450.61 311.18 473.34 310.91 C 473.33 312.99 473.31 315.07 473.28 317.16 C 475.23 317.32 477.19 317.48 479.15 317.63 C 479.24 315.43 479.33 313.24 479.42 311.05 C 502.13 310.72 524.85 311.02 547.57 311.02 C 547.60 313.15 547.63 315.28 547.68 317.42 C 549.59 317.41 551.52 317.41 553.45 317.42 C 553.40 315.34 553.36 313.27 553.32 311.20 C 576.07 310.69 598.83 310.91 621.58 311.06 C 621.56 313.16 621.57 315.27 621.61 317.38 C 623.54 317.41 625.47 317.45 627.41 317.49 C 627.41 315.42 627.41 313.36 627.42 311.30 C 650.14 310.51 672.89 311.01 695.63 311.04 C 695.59 313.17 695.58 315.30 695.58 317.44 C 697.61 317.39 699.64 317.34 701.69 317.31 C 701.60 315.27 701.53 313.24 701.46 311.21 C 724.24 310.61 747.04 311.08 769.83 310.92 C 769.82 313.08 769.83 315.24 769.84 317.40 C 771.75 317.41 773.66 317.42 775.59 317.44 C 775.60 315.31 775.61 313.18 775.60 311.06 C 798.30 310.74 821.01 311.00 843.72 310.93 C 843.76 313.08 843.80 315.24 843.85 317.40 C 845.75 317.41 847.65 317.43 849.57 317.45 C 849.58 315.40 849.59 313.36 849.61 311.32 C 872.31 310.46 895.03 311.21 917.74 310.95 C 917.77 313.10 917.81 315.25 917.87 317.41 C 919.82 317.41 921.78 317.41 923.76 317.43 C 923.76 316.16 923.76 314.89 923.74 313.63 C 939.85 357.32 949.11 403.49 951.69 449.97 C 953.71 478.93 952.09 508.03 948.63 536.82 C 944.16 571.58 936.11 605.95 923.90 638.81 C 923.88 637.86 923.85 635.95 923.84 635.00 C 921.80 634.96 919.78 634.92 917.76 634.89 C 917.71 637.15 917.66 639.41 917.64 641.68 C 895.01 641.40 872.38 642.12 849.76 641.30 C 849.71 639.17 849.67 637.05 849.65 634.94 C 847.68 634.95 845.71 634.98 843.76 635.01 C 843.71 637.22 843.67 639.45 843.64 641.68 C 820.98 641.46 798.31 641.99 775.66 641.39 C 775.66 639.24 775.67 637.11 775.69 634.98 C 773.70 634.95 771.72 634.92 769.76 634.90 C 769.74 637.15 769.74 639.40 769.74 641.67 C 747.01 641.57 724.27 641.89 701.55 641.42 C 701.59 639.29 701.64 637.16 701.70 635.04 C 699.64 634.98 697.58 634.92 695.53 634.88 C 695.48 637.14 695.43 639.41 695.40 641.68 C 672.78 641.42 650.15 642.09 627.53 641.33 C 627.51 639.17 627.49 637.02 627.48 634.88 C 625.47 634.94 623.46 635.00 621.46 635.07 C 621.48 637.25 621.50 639.44 621.53 641.64 C 598.85 641.68 576.17 641.69 553.49 641.64 C 553.49 639.39 553.49 637.17 553.47 634.94 C 551.51 634.91 549.56 634.88 547.61 634.83 C 547.49 637.09 547.47 639.35 547.51 641.63 C 524.81 641.64 502.11 641.81 479.42 641.48 C 479.41 639.31 479.41 637.13 479.42 634.97 C 477.35 634.95 475.29 634.96 473.24 635.00 C 473.25 637.22 473.25 639.44 473.25 641.67 C 450.59 641.42 427.92 642.10 405.26 641.31 C 405.25 639.17 405.24 637.03 405.24 634.90 C 403.24 634.94 401.24 634.99 399.25 635.03 C 399.25 637.25 399.23 639.46 399.21 641.69 C 376.58 641.63 353.96 641.68 331.34 641.67 C 331.29 639.41 331.25 637.15 331.22 634.91 C 329.26 634.92 327.31 634.93 325.36 634.95 C 325.32 637.19 325.27 639.43 325.22 641.67 C 302.57 641.61 279.93 641.75 257.28 641.61 C 257.23 639.40 257.18 637.19 257.14 635.00 C 255.12 634.96 253.11 634.92 251.10 634.89 C 251.04 637.15 251.00 639.42 250.95 641.70 C 228.34 641.38 205.72 642.12 183.11 641.31 C 183.07 639.16 183.04 637.03 183.01 634.90 C 181.04 634.93 179.07 634.98 177.10 635.02 C 177.07 637.24 177.02 639.46 176.97 641.68 C 154.35 641.65 131.74 641.66 109.12 641.68 C 109.07 639.42 109.02 637.16 108.97 634.92 C 107.01 634.91 105.06 634.91 103.10 634.92 C 103.09 637.16 103.07 639.42 103.03 641.68 C 80.40 641.66 57.78 641.65 35.15 641.68 C 35.02 639.45 34.96 637.22 34.91 635.00 C 32.88 634.96 30.84 634.92 28.80 634.89 C 28.82 635.73 28.84 637.42 28.86 638.26 C -8.87 534.84 -8.81 418.17 28.83 314.73 C 28.90 315.43 29.06 316.82 29.13 317.52 C 31.03 317.46 32.92 317.42 34.81 317.39 C 34.82 315.32 34.83 313.25 34.85 311.18 M 447.01 365.10 C 445.00 369.60 445.27 374.97 447.75 379.24 C 450.34 384.08 455.52 387.10 460.85 387.87 C 466.62 388.53 472.17 385.76 476.31 381.94 C 479.20 383.96 481.95 386.39 485.45 387.31 C 494.28 389.99 504.85 384.09 506.71 374.95 C 507.60 371.65 506.61 368.30 505.74 365.13 C 501.98 369.48 498.87 375.18 492.99 376.90 C 486.60 378.93 480.53 374.50 476.58 369.91 C 472.41 373.87 467.30 378.50 461.04 377.18 C 454.46 376.03 450.99 369.75 447.01 365.10 M 462.39 397.95 C 461.84 406.29 462.34 414.71 462.17 423.08 C 462.32 440.36 461.73 457.65 462.78 474.91 C 463.99 500.97 465.10 527.03 465.97 553.10 C 462.21 549.49 458.37 545.96 454.60 542.37 C 442.52 530.58 432.68 516.42 426.32 500.77 C 419.85 485.10 417.40 467.85 418.96 450.99 C 420.75 430.83 427.95 411.48 437.91 393.98 C 419.62 407.02 409.76 428.63 404.96 450.00 C 402.23 462.07 400.58 474.52 401.89 486.89 C 403.42 503.63 409.47 519.91 419.29 533.55 C 429.08 547.80 442.15 559.52 456.68 568.77 C 442.89 574.44 427.78 575.23 413.06 575.67 C 430.12 581.85 449.02 582.96 466.70 578.81 C 469.80 583.12 473.15 587.25 476.32 591.52 C 479.78 587.71 482.31 583.10 485.99 579.50 C 490.20 579.07 494.32 580.52 498.51 580.82 C 512.13 582.20 526.23 580.57 539.04 575.78 C 524.53 574.91 509.57 574.50 496.01 568.66 C 519.81 554.00 539.63 531.59 547.65 504.48 C 553.91 482.89 551.44 459.67 544.77 438.49 C 539.21 421.33 529.94 404.49 514.85 393.99 C 526.39 414.04 534.17 436.71 534.26 460.03 C 534.51 481.08 528.17 502.03 516.74 519.66 C 508.67 532.36 498.11 543.19 486.75 552.96 C 487.44 529.95 488.76 506.97 489.70 483.97 C 491.08 455.27 490.29 426.52 490.52 397.80 C 485.25 394.63 480.62 390.47 476.56 385.88 C 472.14 390.26 467.56 394.47 462.39 397.95 M 387.90 413.86 C 371.83 428.69 361.95 450.10 361.36 471.99 C 360.19 492.47 366.51 513.11 378.24 529.87 C 385.37 539.83 394.10 549.07 404.84 555.11 C 400.51 546.81 395.11 539.04 391.87 530.19 C 383.18 510.17 379.82 487.64 383.61 466.06 C 387.03 446.57 395.92 428.33 407.88 412.68 C 413.58 404.99 420.39 398.24 427.14 391.50 C 412.77 396.30 399.00 403.41 387.90 413.86 M 525.29 391.54 C 543.01 407.42 557.54 427.39 565.13 450.08 C 570.82 466.64 571.93 484.58 569.33 501.83 C 566.17 521.18 557.80 539.30 547.43 555.79 C 551.21 552.75 555.42 550.29 559.09 547.10 C 582.50 527.30 594.73 495.30 590.92 464.93 C 589.17 451.37 584.43 438.07 576.39 426.95 C 564.06 409.76 545.49 397.48 525.29 391.54 Z" />
<path fill="#ffffff" opacity="1.00" d=" M 33.88 650.10 C 41.85 650.05 49.83 650.11 57.80 650.07 C 57.77 652.48 57.75 654.90 57.74 657.33 C 50.54 657.34 43.33 657.33 36.13 657.33 C 35.20 654.93 34.22 652.56 33.16 650.22 L 33.88 650.10 Z" />
<path fill="#ffffff" opacity="1.00" d=" M 65.32 650.09 C 67.77 650.08 70.21 650.08 72.66 650.09 C 72.83 659.90 72.74 669.72 72.73 679.54 C 75.15 679.63 77.58 679.68 80.01 679.71 C 80.17 669.87 80.04 660.03 80.08 650.19 C 82.50 650.12 84.91 650.06 87.33 649.99 C 87.42 659.88 87.04 669.77 87.57 679.65 C 90.04 679.66 92.51 679.66 94.98 679.68 C 95.13 669.81 95.08 659.94 95.00 650.08 C 97.41 650.08 99.83 650.08 102.25 650.09 C 102.21 662.36 102.36 674.64 102.15 686.92 C 89.88 686.92 77.61 686.91 65.35 686.92 C 65.32 682.02 65.34 677.12 65.33 672.22 C 57.81 672.06 50.23 671.60 42.73 672.35 L 42.52 672.38 C 41.52 669.80 40.33 667.30 39.36 664.72 C 47.94 664.81 56.53 664.65 65.11 664.85 C 65.38 659.93 65.36 655.01 65.32 650.09 Z" />
<path fill="#ffffff" opacity="1.00" d=" M 109.67 650.08 C 141.81 649.99 173.95 650.03 206.09 650.08 C 206.02 652.49 205.99 654.91 205.99 657.33 C 173.96 657.33 141.93 657.34 109.91 657.33 C 109.83 654.90 109.75 652.49 109.67 650.08 Z" />
<path fill="#ffffff" opacity="1.00" d=" M 213.40 650.21 C 215.83 650.11 218.26 650.05 220.70 650.04 C 220.81 659.93 220.16 669.87 221.08 679.74 C 223.51 679.69 225.95 679.66 228.38 679.57 C 228.36 669.75 228.48 659.93 228.32 650.11 C 230.74 650.07 233.17 650.07 235.60 650.11 C 235.55 659.91 235.62 669.72 235.56 679.52 C 237.99 679.61 240.42 679.68 242.85 679.73 C 243.50 669.80 242.90 659.85 243.18 649.92 C 245.62 649.91 248.06 649.91 250.50 649.92 C 250.49 662.26 250.53 674.60 250.47 686.94 C 238.12 686.84 225.76 687.00 213.41 686.82 C 213.40 681.88 213.48 676.94 213.35 672.01 C 205.94 672.03 198.52 671.84 191.11 672.31 C 191.07 674.73 191.10 677.15 191.20 679.58 C 196.13 679.67 201.06 679.67 206.00 679.67 C 206.00 682.08 206.00 684.50 205.99 686.92 C 198.63 686.90 191.28 686.96 183.92 686.82 C 183.92 679.46 183.91 672.11 183.92 664.75 C 193.75 664.75 203.57 664.73 213.40 664.76 C 213.43 659.91 213.43 655.06 213.40 650.21 Z" />
<path fill="#ffffff" opacity="1.00" d=" M 257.76 650.24 C 289.81 649.69 321.87 650.29 353.92 650.01 C 353.92 652.44 353.91 654.88 353.91 657.33 C 321.91 657.23 289.90 657.55 257.90 657.16 C 257.87 654.85 257.83 652.54 257.76 650.24 Z" />
<path fill="#ffffff" opacity="1.00" d=" M 361.65 650.09 C 364.07 650.07 366.49 650.08 368.91 650.08 C 368.99 659.92 368.78 669.77 369.02 679.61 C 371.41 679.62 373.80 679.65 376.20 679.68 C 376.74 669.82 376.35 659.94 376.44 650.07 C 378.88 649.84 381.33 649.87 383.78 649.98 C 383.85 659.78 383.92 669.59 383.74 679.39 C 386.15 679.74 388.60 679.68 391.04 679.72 C 391.33 669.88 391.09 660.03 391.16 650.19 C 393.61 650.11 396.07 650.07 398.53 650.06 C 398.30 662.34 398.47 674.63 398.41 686.92 C 386.15 686.85 373.90 687.04 361.65 686.82 C 361.79 681.96 361.75 677.11 361.75 672.26 C 354.27 671.86 346.78 671.89 339.31 672.30 C 339.33 674.75 339.38 677.20 339.44 679.67 C 344.26 679.66 349.09 679.66 353.92 679.67 C 353.91 682.08 353.92 684.49 353.92 686.91 C 346.65 686.92 339.38 686.91 332.11 686.92 C 331.92 679.53 331.99 672.14 332.10 664.75 C 341.96 664.74 351.81 664.76 361.67 664.74 C 361.64 659.85 361.80 654.97 361.65 650.09 Z" />
<path fill="#ffffff" opacity="1.00" d=" M 406.10 650.13 C 438.15 649.85 470.21 650.06 502.26 650.09 C 502.22 652.49 502.18 654.91 502.15 657.33 C 470.16 657.34 438.17 657.34 406.18 657.33 C 406.16 654.92 406.13 652.53 406.10 650.13 Z" />
<path fill="#ffffff" opacity="1.00" d=" M 509.84 649.92 C 512.25 649.91 514.66 649.91 517.08 649.92 C 517.28 659.81 517.10 669.70 517.18 679.59 C 519.62 679.66 522.08 679.68 524.53 679.62 C 524.45 669.83 524.52 660.04 524.49 650.25 C 526.91 650.09 529.33 649.97 531.75 649.90 C 531.85 659.83 531.49 669.77 532.05 679.69 C 534.51 679.69 536.97 679.66 539.44 679.60 C 539.51 669.80 539.57 659.99 539.43 650.19 C 541.84 650.05 544.26 650.04 546.69 650.12 C 546.65 662.37 546.66 674.63 546.68 686.89 C 534.40 686.94 522.12 686.91 509.83 686.91 C 509.87 681.97 509.80 677.03 509.65 672.10 C 502.19 671.85 494.72 672.05 487.25 672.25 C 487.35 674.71 487.45 677.17 487.56 679.64 C 492.42 679.69 497.28 679.65 502.15 679.67 C 502.17 682.08 502.20 684.49 502.26 686.91 C 494.87 686.94 487.48 686.92 480.09 686.83 C 480.08 679.50 480.08 672.18 480.08 664.85 C 489.91 664.67 499.74 664.71 509.57 664.84 C 509.78 659.86 509.87 654.89 509.84 649.92 Z" />
<path fill="#ffffff" opacity="1.00" d=" M 554.24 649.94 C 586.33 650.26 618.42 649.81 650.50 650.10 C 650.50 652.50 650.49 654.91 650.49 657.32 C 618.41 657.34 586.32 657.34 554.24 657.32 C 554.24 654.85 554.25 652.40 554.24 649.94 Z" />
<path fill="#ffffff" opacity="1.00" d=" M 657.83 650.19 C 660.24 650.12 662.66 650.06 665.08 650.00 C 665.18 659.89 664.85 669.79 665.36 679.67 C 667.81 679.66 670.26 679.66 672.72 679.67 C 672.95 669.81 672.78 659.95 672.84 650.09 C 675.21 650.08 677.60 650.07 679.99 650.08 C 680.04 659.92 679.92 669.76 680.05 679.60 C 682.46 679.60 684.87 679.64 687.28 679.74 C 687.78 669.86 687.51 659.97 687.59 650.08 C 690.03 650.07 692.47 650.08 694.92 650.09 C 694.91 662.37 694.94 674.65 694.90 686.93 C 682.55 686.85 670.20 686.97 657.85 686.84 C 657.81 681.90 657.83 676.95 657.84 672.01 C 650.39 672.04 642.92 671.81 635.48 672.34 C 635.52 674.74 635.56 677.15 635.60 679.56 C 640.55 679.69 645.51 679.68 650.47 679.66 C 650.48 682.05 650.51 684.44 650.55 686.85 C 643.13 686.99 635.71 686.93 628.30 686.80 C 628.61 679.44 628.10 672.07 628.50 664.72 C 638.27 664.79 648.05 664.72 657.83 664.75 C 657.84 659.90 657.83 655.04 657.83 650.19 Z" />
<path fill="#ffffff" opacity="1.00" d=" M 702.24 650.18 C 734.30 649.87 766.36 650.14 798.42 650.08 C 798.42 652.49 798.38 654.91 798.32 657.33 C 766.38 657.33 734.44 657.35 702.50 657.32 C 702.25 654.94 702.23 652.55 702.24 650.18 Z" />
<path fill="#ffffff" opacity="1.00" d=" M 806.16 650.09 C 808.54 650.08 810.93 650.07 813.33 650.08 C 813.34 659.91 813.33 669.73 813.33 679.56 C 815.76 679.60 818.20 679.65 820.64 679.71 C 821.12 669.85 820.87 659.98 820.84 650.12 C 823.30 650.03 825.77 649.96 828.25 649.89 C 828.26 659.82 828.24 669.74 828.26 679.67 C 830.69 679.66 833.13 679.66 835.58 679.66 C 835.66 669.83 835.73 660.00 835.57 650.18 C 838.01 650.11 840.46 650.07 842.91 650.07 C 842.86 662.33 842.74 674.59 842.99 686.84 C 830.71 686.95 818.44 686.93 806.17 686.84 C 806.19 682.06 806.04 677.28 806.33 672.51 C 798.83 671.54 791.24 671.98 783.71 672.32 C 783.80 674.76 783.84 677.20 783.81 679.64 C 788.66 679.68 793.52 679.66 798.38 679.66 C 798.43 682.08 798.43 684.51 798.38 686.94 C 791.08 686.86 783.77 686.98 776.47 686.87 C 776.51 679.49 776.35 672.11 776.55 664.73 C 786.37 664.78 796.20 664.72 806.02 664.76 C 806.28 659.87 806.12 654.98 806.16 650.09 Z" />
<path fill="#ffffff" opacity="1.00" d=" M 850.58 650.15 C 873.64 650.04 896.71 649.91 919.77 650.08 C 918.81 652.50 917.84 654.92 916.87 657.33 C 894.78 657.33 872.70 657.34 850.62 657.33 C 850.59 654.93 850.58 652.54 850.58 650.15 Z" />
<path fill="#ffffff" opacity="1.00" d=" M 109.84 664.75 C 122.05 664.70 134.27 664.83 146.49 664.68 C 146.86 669.61 146.60 674.57 146.64 679.51 C 154.05 679.82 161.47 679.58 168.88 679.68 C 168.94 677.18 168.99 674.68 169.01 672.19 C 164.05 671.97 159.09 672.00 154.13 671.98 C 154.16 669.54 154.23 667.10 154.47 664.68 C 161.70 664.83 168.93 664.70 176.17 664.75 C 176.21 672.14 176.19 679.53 176.17 686.91 C 163.95 686.89 151.73 686.99 139.51 686.83 C 139.49 681.97 139.50 677.11 139.50 672.26 C 132.03 671.86 124.55 671.91 117.08 672.27 C 117.21 677.11 117.16 681.96 117.17 686.81 C 114.72 686.89 112.27 686.92 109.83 686.91 C 109.80 679.52 109.75 672.14 109.84 664.75 Z" />
<path fill="#ffffff" opacity="1.00" d=" M 257.94 664.85 C 270.26 664.66 282.59 664.78 294.92 664.75 C 294.96 669.73 294.81 674.72 295.01 679.70 C 302.45 679.51 309.91 679.92 317.34 679.49 C 317.23 677.05 317.23 674.62 317.28 672.20 C 312.26 671.95 307.24 672.03 302.22 671.87 C 302.29 669.55 302.33 667.22 302.33 664.91 C 309.68 664.57 317.05 664.82 324.41 664.75 C 324.42 672.14 324.42 679.53 324.41 686.92 C 312.14 686.88 299.87 687.00 287.60 686.83 C 287.59 681.93 287.57 677.03 287.47 672.13 C 280.07 671.85 272.65 672.03 265.25 672.04 C 265.05 677.00 265.07 681.96 265.09 686.92 C 262.67 686.88 260.25 686.83 257.84 686.79 C 257.85 679.47 257.75 672.16 257.94 664.85 Z" />
<path fill="#ffffff" opacity="1.00" d=" M 406.16 664.76 C 418.39 664.75 430.61 664.73 442.84 664.76 C 442.80 669.74 442.86 674.72 443.15 679.70 C 450.52 679.50 457.90 679.93 465.26 679.48 C 465.15 676.98 465.14 674.48 465.16 671.99 C 460.29 672.14 455.41 672.10 450.55 671.94 C 450.56 669.54 450.59 667.15 450.64 664.75 C 457.93 664.69 465.21 664.86 472.50 664.66 C 472.96 672.06 472.70 679.49 472.66 686.90 C 460.33 686.90 448.00 686.94 435.67 686.84 C 435.68 681.92 435.64 677.01 435.63 672.09 C 428.20 671.92 420.76 671.90 413.33 672.31 C 413.33 677.18 413.34 682.05 413.33 686.93 C 410.94 686.87 408.55 686.84 406.17 686.82 C 406.16 679.46 406.17 672.11 406.16 664.76 Z" />
<path fill="#ffffff" opacity="1.00" d=" M 554.23 686.90 C 554.41 679.49 553.95 672.06 554.47 664.66 C 566.67 664.86 578.88 664.69 591.08 664.75 C 591.03 669.69 591.17 674.63 591.19 679.58 C 598.58 679.67 605.99 679.77 613.38 679.57 C 613.37 677.10 613.41 674.64 613.47 672.18 C 608.50 671.98 603.54 671.98 598.57 672.00 C 598.64 669.58 598.71 667.16 598.78 664.75 C 606.01 664.71 613.24 664.81 620.47 664.70 C 620.85 672.07 620.62 679.47 620.61 686.86 C 608.38 686.94 596.15 686.99 583.92 686.82 C 583.90 681.95 583.95 677.09 583.89 672.23 C 576.44 671.90 568.97 671.89 561.53 672.27 C 561.63 677.11 561.55 681.96 561.60 686.80 C 559.14 686.89 556.68 686.92 554.23 686.90 Z" />
<path fill="#ffffff" opacity="1.00" d=" M 702.25 665.05 C 714.58 664.40 726.96 664.91 739.32 664.75 C 739.36 669.72 739.46 674.69 739.41 679.66 C 746.82 679.67 754.24 679.66 761.65 679.67 C 761.65 677.18 761.69 674.70 761.76 672.22 C 756.74 671.94 751.71 672.01 746.69 671.91 C 746.73 669.55 746.75 667.19 746.76 664.85 C 754.11 664.64 761.46 664.79 768.81 664.75 C 769.00 672.14 768.89 679.52 768.91 686.91 C 756.55 686.90 744.19 686.98 731.84 686.82 C 731.83 681.94 731.83 677.05 731.83 672.17 C 724.40 672.19 716.97 671.76 709.55 672.18 C 709.46 677.08 709.49 681.97 709.53 686.88 C 707.13 686.88 704.73 686.85 702.35 686.79 C 702.27 679.54 702.44 672.29 702.25 665.05 Z" />
<path fill="#ffffff" opacity="1.00" d=" M 850.59 664.75 C 862.80 664.75 875.01 664.74 887.23 664.75 C 887.26 669.72 887.35 674.68 887.55 679.65 C 894.03 679.68 900.51 679.66 906.99 679.67 C 905.84 682.09 904.67 684.51 903.48 686.93 C 895.68 686.96 887.88 686.85 880.09 686.83 C 880.06 681.89 880.12 676.94 880.02 672.00 C 872.60 672.04 865.17 671.84 857.76 672.30 C 857.74 677.17 857.75 682.04 857.75 686.92 C 855.36 686.88 852.98 686.84 850.61 686.83 C 850.55 679.47 850.59 672.11 850.59 664.75 Z" />
<path fill="#ffffff" opacity="1.00" d=" M 895.09 664.75 C 901.19 664.75 907.28 664.74 913.38 664.74 L 913.39 665.07 C 912.66 667.63 911.34 669.97 910.43 672.47 L 910.22 672.46 C 905.15 672.01 900.06 672.16 894.99 671.92 C 895.00 669.52 895.04 667.13 895.09 664.75 Z" />
<path fill="#ffffff" opacity="1.00" d=" M 46.01 679.67 C 49.92 679.66 53.83 679.67 57.73 679.66 C 57.75 682.07 57.75 684.48 57.76 686.91 C 55.01 686.91 52.27 686.91 49.52 686.93 C 48.33 684.52 47.16 682.10 46.01 679.67 Z" />
<path fill="#ffffff" opacity="1.00" d=" M 124.53 679.75 C 126.93 679.70 129.34 679.65 131.74 679.62 C 131.75 682.05 131.75 684.48 131.76 686.92 C 129.33 686.88 126.91 686.84 124.48 686.80 C 124.48 684.44 124.50 682.09 124.53 679.75 Z" />
<path fill="#ffffff" opacity="1.00" d=" M 717.28 679.65 C 719.64 679.65 722.02 679.66 724.40 679.67 C 724.42 682.08 724.46 684.50 724.50 686.93 C 722.07 686.85 719.66 686.82 717.24 686.82 C 717.23 684.42 717.24 682.04 717.28 679.65 Z" />
<path fill="#ffffff" opacity="1.00" d=" M 865.45 679.57 C 867.84 679.63 870.24 679.67 872.65 679.67 C 872.65 682.07 872.66 684.48 872.68 686.90 C 870.21 686.92 867.75 686.92 865.29 686.88 C 865.33 684.44 865.38 682.00 865.45 679.57 Z" />
<path fill="#ffffff" opacity="1.00" d=" M 272.75 686.76 C 272.84 684.41 272.86 682.07 272.81 679.74 C 275.20 679.65 277.60 679.63 280.00 679.67 C 280.00 682.09 280.00 684.51 279.98 686.93 C 277.57 686.88 275.16 686.80 272.75 686.76 Z" />
<path fill="#ffffff" opacity="1.00" d=" M 420.92 679.58 C 423.36 679.64 425.80 679.67 428.25 679.68 C 428.25 682.09 428.25 684.50 428.25 686.92 C 425.80 686.91 423.36 686.91 420.92 686.91 C 420.91 684.46 420.91 682.02 420.92 679.58 Z" />
<path fill="#ffffff" opacity="1.00" d=" M 569.00 679.76 C 571.39 679.67 573.78 679.65 576.18 679.67 C 576.18 682.09 576.16 684.52 576.13 686.95 C 573.75 686.86 571.38 686.83 569.01 686.83 C 569.00 684.47 568.99 682.11 569.00 679.76 Z" />
</g>
<g id="#db0100ff">
<path fill="#db0100" opacity="1.00" d=" M 447.01 365.10 C 450.99 369.75 454.46 376.03 461.04 377.18 C 467.30 378.50 472.41 373.87 476.58 369.91 C 480.53 374.50 486.60 378.93 492.99 376.90 C 498.87 375.18 501.98 369.48 505.74 365.13 C 506.61 368.30 507.60 371.65 506.71 374.95 C 504.85 384.09 494.28 389.99 485.45 387.31 C 481.95 386.39 479.20 383.96 476.31 381.94 C 472.17 385.76 466.62 388.53 460.85 387.87 C 455.52 387.10 450.34 384.08 447.75 379.24 C 445.27 374.97 445.00 369.60 447.01 365.10 Z" />
<path fill="#db0100" opacity="1.00" d=" M 462.39 397.95 C 467.56 394.47 472.14 390.26 476.56 385.88 C 480.62 390.47 485.25 394.63 490.52 397.80 C 490.29 426.52 491.08 455.27 489.70 483.97 C 488.76 506.97 487.44 529.95 486.75 552.96 C 498.11 543.19 508.67 532.36 516.74 519.66 C 528.17 502.03 534.51 481.08 534.26 460.03 C 534.17 436.71 526.39 414.04 514.85 393.99 C 529.94 404.49 539.21 421.33 544.77 438.49 C 551.44 459.67 553.91 482.89 547.65 504.48 C 539.63 531.59 519.81 554.00 496.01 568.66 C 509.57 574.50 524.53 574.91 539.04 575.78 C 526.23 580.57 512.13 582.20 498.51 580.82 C 494.32 580.52 490.20 579.07 485.99 579.50 C 482.31 583.10 479.78 587.71 476.32 591.52 C 473.15 587.25 469.80 583.12 466.70 578.81 C 449.02 582.96 430.12 581.85 413.06 575.67 C 427.78 575.23 442.89 574.44 456.68 568.77 C 442.15 559.52 429.08 547.80 419.29 533.55 C 409.47 519.91 403.42 503.63 401.89 486.89 C 400.58 474.52 402.23 462.07 404.96 450.00 C 409.76 428.63 419.62 407.02 437.91 393.98 C 427.95 411.48 420.75 430.83 418.96 450.99 C 417.40 467.85 419.85 485.10 426.32 500.77 C 432.68 516.42 442.52 530.58 454.60 542.37 C 458.37 545.96 462.21 549.49 465.97 553.10 C 465.10 527.03 463.99 500.97 462.78 474.91 C 461.73 457.65 462.32 440.36 462.17 423.08 C 462.34 414.71 461.84 406.29 462.39 397.95 Z" />
<path fill="#db0100" opacity="1.00" d=" M 387.90 413.86 C 399.00 403.41 412.77 396.30 427.14 391.50 C 420.39 398.24 413.58 404.99 407.88 412.68 C 395.92 428.33 387.03 446.57 383.61 466.06 C 379.82 487.64 383.18 510.17 391.87 530.19 C 395.11 539.04 400.51 546.81 404.84 555.11 C 394.10 549.07 385.37 539.83 378.24 529.87 C 366.51 513.11 360.19 492.47 361.36 471.99 C 361.95 450.10 371.83 428.69 387.90 413.86 Z" />
<path fill="#db0100" opacity="1.00" d=" M 525.29 391.54 C 545.49 397.48 564.06 409.76 576.39 426.95 C 584.43 438.07 589.17 451.37 590.92 464.93 C 594.73 495.30 582.50 527.30 559.09 547.10 C 555.42 550.29 551.21 552.75 547.43 555.79 C 557.80 539.30 566.17 521.18 569.33 501.83 C 571.93 484.58 570.82 466.64 565.13 450.08 C 557.54 427.39 543.01 407.42 525.29 391.54 Z" />
<path fill="#db0100" opacity="1.00" d=" M 28.80 634.89 C 30.84 634.92 32.88 634.96 34.91 635.00 C 34.96 637.22 35.02 639.45 35.15 641.68 C 57.78 641.65 80.40 641.66 103.03 641.68 C 103.07 639.42 103.09 637.16 103.10 634.92 C 105.06 634.91 107.01 634.91 108.97 634.92 C 109.02 637.16 109.07 639.42 109.12 641.68 C 131.74 641.66 154.35 641.65 176.97 641.68 C 177.02 639.46 177.07 637.24 177.10 635.02 C 179.07 634.98 181.04 634.93 183.01 634.90 C 183.04 637.03 183.07 639.16 183.11 641.31 C 205.72 642.12 228.34 641.38 250.95 641.70 C 251.00 639.42 251.04 637.15 251.10 634.89 C 253.11 634.92 255.12 634.96 257.14 635.00 C 257.18 637.19 257.23 639.40 257.28 641.61 C 279.93 641.75 302.57 641.61 325.22 641.67 C 325.27 639.43 325.32 637.19 325.36 634.95 C 327.31 634.93 329.26 634.92 331.22 634.91 C 331.25 637.15 331.29 639.41 331.34 641.67 C 353.96 641.68 376.58 641.63 399.21 641.69 C 399.23 639.46 399.25 637.25 399.25 635.03 C 401.24 634.99 403.24 634.94 405.24 634.90 C 405.24 637.03 405.25 639.17 405.26 641.31 C 427.92 642.10 450.59 641.42 473.25 641.67 C 473.25 639.44 473.25 637.22 473.24 635.00 C 475.29 634.96 477.35 634.95 479.42 634.97 C 479.41 637.13 479.41 639.31 479.42 641.48 C 502.11 641.81 524.81 641.64 547.51 641.63 C 547.47 639.35 547.49 637.09 547.61 634.83 C 549.56 634.88 551.51 634.91 553.47 634.94 C 553.49 637.17 553.49 639.39 553.49 641.64 C 576.17 641.69 598.85 641.68 621.53 641.64 C 621.50 639.44 621.48 637.25 621.46 635.07 C 623.46 635.00 625.47 634.94 627.48 634.88 C 627.49 637.02 627.51 639.17 627.53 641.33 C 650.15 642.09 672.78 641.42 695.40 641.68 C 695.43 639.41 695.48 637.14 695.53 634.88 C 697.58 634.92 699.64 634.98 701.70 635.04 C 701.64 637.16 701.59 639.29 701.55 641.42 C 724.27 641.89 747.01 641.57 769.74 641.67 C 769.74 639.40 769.74 637.15 769.76 634.90 C 771.72 634.92 773.70 634.95 775.69 634.98 C 775.67 637.11 775.66 639.24 775.66 641.39 C 798.31 641.99 820.98 641.46 843.64 641.68 C 843.67 639.45 843.71 637.22 843.76 635.01 C 845.71 634.98 847.68 634.95 849.65 634.94 C 849.67 637.05 849.71 639.17 849.76 641.30 C 872.38 642.12 895.01 641.40 917.64 641.68 C 917.66 639.41 917.71 637.15 917.76 634.89 C 919.78 634.92 921.80 634.96 923.84 635.00 C 923.85 635.95 923.88 637.86 923.90 638.81 C 922.82 642.66 921.13 646.32 919.77 650.08 C 896.71 649.91 873.64 650.04 850.58 650.15 C 850.58 652.54 850.59 654.93 850.62 657.33 C 872.70 657.34 894.78 657.33 916.87 657.33 C 915.68 660.13 914.47 662.92 913.42 665.78 L 913.39 665.07 L 913.38 664.74 C 907.28 664.74 901.19 664.75 895.09 664.75 C 895.04 667.13 895.00 669.52 894.99 671.92 C 900.06 672.16 905.15 672.01 910.22 672.46 C 909.25 674.90 908.13 677.29 906.99 679.67 C 900.51 679.66 894.03 679.68 887.55 679.65 C 887.35 674.68 887.26 669.72 887.23 664.75 C 875.01 664.74 862.80 664.75 850.59 664.75 C 850.59 672.11 850.55 679.47 850.61 686.83 C 852.98 686.84 855.36 686.88 857.75 686.92 C 857.75 682.04 857.74 677.17 857.76 672.30 C 865.17 671.84 872.60 672.04 880.02 672.00 C 880.12 676.94 880.06 681.89 880.09 686.83 C 887.88 686.85 895.68 686.96 903.48 686.93 C 870.79 753.27 822.33 811.73 763.32 856.31 C 693.63 909.21 609.05 942.22 521.91 950.28 C 506.31 951.66 490.65 952.59 474.98 952.62 C 440.76 952.13 406.52 948.63 373.10 941.15 C 307.51 926.68 245.15 897.94 191.44 857.63 C 131.63 812.89 82.54 753.93 49.52 686.93 C 52.27 686.91 55.01 686.91 57.76 686.91 C 57.75 684.48 57.75 682.07 57.73 679.66 C 53.83 679.67 49.92 679.66 46.01 679.67 C 44.85 677.25 43.71 674.83 42.73 672.35 C 50.23 671.60 57.81 672.06 65.33 672.22 C 65.34 677.12 65.32 682.02 65.35 686.92 C 77.61 686.91 89.88 686.92 102.15 686.92 C 102.36 674.64 102.21 662.36 102.25 650.09 C 99.83 650.08 97.41 650.08 95.00 650.08 C 95.08 659.94 95.13 669.81 94.98 679.68 C 92.51 679.66 90.04 679.66 87.57 679.65 C 87.04 669.77 87.42 659.88 87.33 649.99 C 84.91 650.06 82.50 650.12 80.08 650.19 C 80.04 660.03 80.17 669.87 80.01 679.71 C 77.58 679.68 75.15 679.63 72.73 679.54 C 72.74 669.72 72.83 659.90 72.66 650.09 C 70.21 650.08 67.77 650.08 65.32 650.09 C 65.36 655.01 65.38 659.93 65.11 664.85 C 56.53 664.65 47.94 664.81 39.36 664.72 L 39.14 664.72 C 38.23 662.22 37.17 659.78 36.13 657.33 C 43.33 657.33 50.54 657.34 57.74 657.33 C 57.75 654.90 57.77 652.48 57.80 650.07 C 49.83 650.11 41.85 650.05 33.88 650.10 L 33.12 650.10 C 31.87 646.09 30.05 642.28 28.86 638.26 C 28.84 637.42 28.82 635.73 28.80 634.89 M 109.67 650.08 C 109.75 652.49 109.83 654.90 109.91 657.33 C 141.93 657.34 173.96 657.33 205.99 657.33 C 205.99 654.91 206.02 652.49 206.09 650.08 C 173.95 650.03 141.81 649.99 109.67 650.08 M 213.40 650.21 C 213.43 655.06 213.43 659.91 213.40 664.76 C 203.57 664.73 193.75 664.75 183.92 664.75 C 183.91 672.11 183.92 679.46 183.92 686.82 C 191.28 686.96 198.63 686.90 205.99 686.92 C 206.00 684.50 206.00 682.08 206.00 679.67 C 201.06 679.67 196.13 679.67 191.20 679.58 C 191.10 677.15 191.07 674.73 191.11 672.31 C 198.52 671.84 205.94 672.03 213.35 672.01 C 213.48 676.94 213.40 681.88 213.41 686.82 C 225.76 687.00 238.12 686.84 250.47 686.94 C 250.53 674.60 250.49 662.26 250.50 649.92 C 248.06 649.91 245.62 649.91 243.18 649.92 C 242.90 659.85 243.50 669.80 242.85 679.73 C 240.42 679.68 237.99 679.61 235.56 679.52 C 235.62 669.72 235.55 659.91 235.60 650.11 C 233.17 650.07 230.74 650.07 228.32 650.11 C 228.48 659.93 228.36 669.75 228.38 679.57 C 225.95 679.66 223.51 679.69 221.08 679.74 C 220.16 669.87 220.81 659.93 220.70 650.04 C 218.26 650.05 215.83 650.11 213.40 650.21 M 257.76 650.24 C 257.83 652.54 257.87 654.85 257.90 657.16 C 289.90 657.55 321.91 657.23 353.91 657.33 C 353.91 654.88 353.92 652.44 353.92 650.01 C 321.87 650.29 289.81 649.69 257.76 650.24 M 361.65 650.09 C 361.80 654.97 361.64 659.85 361.67 664.74 C 351.81 664.76 341.96 664.74 332.10 664.75 C 331.99 672.14 331.92 679.53 332.11 686.92 C 339.38 686.91 346.65 686.92 353.92 686.91 C 353.92 684.49 353.91 682.08 353.92 679.67 C 349.09 679.66 344.26 679.66 339.44 679.67 C 339.38 677.20 339.33 674.75 339.31 672.30 C 346.78 671.89 354.27 671.86 361.75 672.26 C 361.75 677.11 361.79 681.96 361.65 686.82 C 373.90 687.04 386.15 686.85 398.41 686.92 C 398.47 674.63 398.30 662.34 398.53 650.06 C 396.07 650.07 393.61 650.11 391.16 650.19 C 391.09 660.03 391.33 669.88 391.04 679.72 C 388.60 679.68 386.15 679.74 383.74 679.39 C 383.92 669.59 383.85 659.78 383.78 649.98 C 381.33 649.87 378.88 649.84 376.44 650.07 C 376.35 659.94 376.74 669.82 376.20 679.68 C 373.80 679.65 371.41 679.62 369.02 679.61 C 368.78 669.77 368.99 659.92 368.91 650.08 C 366.49 650.08 364.07 650.07 361.65 650.09 M 406.10 650.13 C 406.13 652.53 406.16 654.92 406.18 657.33 C 438.17 657.34 470.16 657.34 502.15 657.33 C 502.18 654.91 502.22 652.49 502.26 650.09 C 470.21 650.06 438.15 649.85 406.10 650.13 M 509.84 649.92 C 509.87 654.89 509.78 659.86 509.57 664.84 C 499.74 664.71 489.91 664.67 480.08 664.85 C 480.08 672.18 480.08 679.50 480.09 686.83 C 487.48 686.92 494.87 686.94 502.26 686.91 C 502.20 684.49 502.17 682.08 502.15 679.67 C 497.28 679.65 492.42 679.69 487.56 679.64 C 487.45 677.17 487.35 674.71 487.25 672.25 C 494.72 672.05 502.19 671.85 509.65 672.10 C 509.80 677.03 509.87 681.97 509.83 686.91 C 522.12 686.91 534.40 686.94 546.68 686.89 C 546.66 674.63 546.65 662.37 546.69 650.12 C 544.26 650.04 541.84 650.05 539.43 650.19 C 539.57 659.99 539.51 669.80 539.44 679.60 C 536.97 679.66 534.51 679.69 532.05 679.69 C 531.49 669.77 531.85 659.83 531.75 649.90 C 529.33 649.97 526.91 650.09 524.49 650.25 C 524.52 660.04 524.45 669.83 524.53 679.62 C 522.08 679.68 519.62 679.66 517.18 679.59 C 517.10 669.70 517.28 659.81 517.08 649.92 C 514.66 649.91 512.25 649.91 509.84 649.92 M 554.24 649.94 C 554.25 652.40 554.24 654.85 554.24 657.32 C 586.32 657.34 618.41 657.34 650.49 657.32 C 650.49 654.91 650.50 652.50 650.50 650.10 C 618.42 649.81 586.33 650.26 554.24 649.94 M 657.83 650.19 C 657.83 655.04 657.84 659.90 657.83 664.75 C 648.05 664.72 638.27 664.79 628.50 664.72 C 628.10 672.07 628.61 679.44 628.30 686.80 C 635.71 686.93 643.13 686.99 650.55 686.85 C 650.51 684.44 650.48 682.05 650.47 679.66 C 645.51 679.68 640.55 679.69 635.60 679.56 C 635.56 677.15 635.52 674.74 635.48 672.34 C 642.92 671.81 650.39 672.04 657.84 672.01 C 657.83 676.95 657.81 681.90 657.85 686.84 C 670.20 686.97 682.55 686.85 694.90 686.93 C 694.94 674.65 694.91 662.37 694.92 650.09 C 692.47 650.08 690.03 650.07 687.59 650.08 C 687.51 659.97 687.78 669.86 687.28 679.74 C 684.87 679.64 682.46 679.60 680.05 679.60 C 679.92 669.76 680.04 659.92 679.99 650.08 C 677.60 650.07 675.21 650.08 672.84 650.09 C 672.78 659.95 672.95 669.81 672.72 679.67 C 670.26 679.66 667.81 679.66 665.36 679.67 C 664.85 669.79 665.18 659.89 665.08 650.00 C 662.66 650.06 660.24 650.12 657.83 650.19 M 702.24 650.18 C 702.23 652.55 702.25 654.94 702.50 657.32 C 734.44 657.35 766.38 657.33 798.32 657.33 C 798.38 654.91 798.42 652.49 798.42 650.08 C 766.36 650.14 734.30 649.87 702.24 650.18 M 806.16 650.09 C 806.12 654.98 806.28 659.87 806.02 664.76 C 796.20 664.72 786.37 664.78 776.55 664.73 C 776.35 672.11 776.51 679.49 776.47 686.87 C 783.77 686.98 791.08 686.86 798.38 686.94 C 798.43 684.51 798.43 682.08 798.38 679.66 C 793.52 679.66 788.66 679.68 783.81 679.64 C 783.84 677.20 783.80 674.76 783.71 672.32 C 791.24 671.98 798.83 671.54 806.33 672.51 C 806.04 677.28 806.19 682.06 806.17 686.84 C 818.44 686.93 830.71 686.95 842.99 686.84 C 842.74 674.59 842.86 662.33 842.91 650.07 C 840.46 650.07 838.01 650.11 835.57 650.18 C 835.73 660.00 835.66 669.83 835.58 679.66 C 833.13 679.66 830.69 679.66 828.26 679.67 C 828.24 669.74 828.26 659.82 828.25 649.89 C 825.77 649.96 823.30 650.03 820.84 650.12 C 820.87 659.98 821.12 669.85 820.64 679.71 C 818.20 679.65 815.76 679.60 813.33 679.56 C 813.33 669.73 813.34 659.91 813.33 650.08 C 810.93 650.07 808.54 650.08 806.16 650.09 M 109.84 664.75 C 109.75 672.14 109.80 679.52 109.83 686.91 C 112.27 686.92 114.72 686.89 117.17 686.81 C 117.16 681.96 117.21 677.11 117.08 672.27 C 124.55 671.91 132.03 671.86 139.50 672.26 C 139.50 677.11 139.49 681.97 139.51 686.83 C 151.73 686.99 163.95 686.89 176.17 686.91 C 176.19 679.53 176.21 672.14 176.17 664.75 C 168.93 664.70 161.70 664.83 154.47 664.68 C 154.23 667.10 154.16 669.54 154.13 671.98 C 159.09 672.00 164.05 671.97 169.01 672.19 C 168.99 674.68 168.94 677.18 168.88 679.68 C 161.47 679.58 154.05 679.82 146.64 679.51 C 146.60 674.57 146.86 669.61 146.49 664.68 C 134.27 664.83 122.05 664.70 109.84 664.75 M 257.94 664.85 C 257.75 672.16 257.85 679.47 257.84 686.79 C 260.25 686.83 262.67 686.88 265.09 686.92 C 265.07 681.96 265.05 677.00 265.25 672.04 C 272.65 672.03 280.07 671.85 287.47 672.13 C 287.57 677.03 287.59 681.93 287.60 686.83 C 299.87 687.00 312.14 686.88 324.41 686.92 C 324.42 679.53 324.42 672.14 324.41 664.75 C 317.05 664.82 309.68 664.57 302.33 664.91 C 302.33 667.22 302.29 669.55 302.22 671.87 C 307.24 672.03 312.26 671.95 317.28 672.20 C 317.23 674.62 317.23 677.05 317.34 679.49 C 309.91 679.92 302.45 679.51 295.01 679.70 C 294.81 674.72 294.96 669.73 294.92 664.75 C 282.59 664.78 270.26 664.66 257.94 664.85 M 406.16 664.76 C 406.17 672.11 406.16 679.46 406.17 686.82 C 408.55 686.84 410.94 686.87 413.33 686.93 C 413.34 682.05 413.33 677.18 413.33 672.31 C 420.76 671.90 428.20 671.92 435.63 672.09 C 435.64 677.01 435.68 681.92 435.67 686.84 C 448.00 686.94 460.33 686.90 472.66 686.90 C 472.70 679.49 472.96 672.06 472.50 664.66 C 465.21 664.86 457.93 664.69 450.64 664.75 C 450.59 667.15 450.56 669.54 450.55 671.94 C 455.41 672.10 460.29 672.14 465.16 671.99 C 465.14 674.48 465.15 676.98 465.26 679.48 C 457.90 679.93 450.52 679.50 443.15 679.70 C 442.86 674.72 442.80 669.74 442.84 664.76 C 430.61 664.73 418.39 664.75 406.16 664.76 M 554.23 686.90 C 556.68 686.92 559.14 686.89 561.60 686.80 C 561.55 681.96 561.63 677.11 561.53 672.27 C 568.97 671.89 576.44 671.90 583.89 672.23 C 583.95 677.09 583.90 681.95 583.92 686.82 C 596.15 686.99 608.38 686.94 620.61 686.86 C 620.62 679.47 620.85 672.07 620.47 664.70 C 613.24 664.81 606.01 664.71 598.78 664.75 C 598.71 667.16 598.64 669.58 598.57 672.00 C 603.54 671.98 608.50 671.98 613.47 672.18 C 613.41 674.64 613.37 677.10 613.38 679.57 C 605.99 679.77 598.58 679.67 591.19 679.58 C 591.17 674.63 591.03 669.69 591.08 664.75 C 578.88 664.69 566.67 664.86 554.47 664.66 C 553.95 672.06 554.41 679.49 554.23 686.90 M 702.25 665.05 C 702.44 672.29 702.27 679.54 702.35 686.79 C 704.73 686.85 707.13 686.88 709.53 686.88 C 709.49 681.97 709.46 677.08 709.55 672.18 C 716.97 671.76 724.40 672.19 731.83 672.17 C 731.83 677.05 731.83 681.94 731.84 686.82 C 744.19 686.98 756.55 686.90 768.91 686.91 C 768.89 679.52 769.00 672.14 768.81 664.75 C 761.46 664.79 754.11 664.64 746.76 664.85 C 746.75 667.19 746.73 669.55 746.69 671.91 C 751.71 672.01 756.74 671.94 761.76 672.22 C 761.69 674.70 761.65 677.18 761.65 679.67 C 754.24 679.66 746.82 679.67 739.41 679.66 C 739.46 674.69 739.36 669.72 739.32 664.75 C 726.96 664.91 714.58 664.40 702.25 665.05 M 124.53 679.75 C 124.50 682.09 124.48 684.44 124.48 686.80 C 126.91 686.84 129.33 686.88 131.76 686.92 C 131.75 684.48 131.75 682.05 131.74 679.62 C 129.34 679.65 126.93 679.70 124.53 679.75 M 717.28 679.65 C 717.24 682.04 717.23 684.42 717.24 686.82 C 719.66 686.82 722.07 686.85 724.50 686.93 C 724.46 684.50 724.42 682.08 724.40 679.67 C 722.02 679.66 719.64 679.65 717.28 679.65 M 865.45 679.57 C 865.38 682.00 865.33 684.44 865.29 686.88 C 867.75 686.92 870.21 686.92 872.68 686.90 C 872.66 684.48 872.65 682.07 872.65 679.67 C 870.24 679.67 867.84 679.63 865.45 679.57 M 272.75 686.76 C 275.16 686.80 277.57 686.88 279.98 686.93 C 280.00 684.51 280.00 682.09 280.00 679.67 C 277.60 679.63 275.20 679.65 272.81 679.74 C 272.86 682.07 272.84 684.41 272.75 686.76 M 420.92 679.58 C 420.91 682.02 420.91 684.46 420.92 686.91 C 423.36 686.91 425.80 686.91 428.25 686.92 C 428.25 684.50 428.25 682.09 428.25 679.68 C 425.80 679.67 423.36 679.64 420.92 679.58 M 569.00 679.76 C 568.99 682.11 569.00 684.47 569.01 686.83 C 571.38 686.83 573.75 686.86 576.13 686.95 C 576.16 684.52 576.18 682.09 576.18 679.67 C 573.78 679.65 571.39 679.67 569.00 679.76 Z" />
</g>
</svg>
