<?xml version="1.0" encoding="UTF-8" ?>
<!DOCTYPE svg PUBLIC "-//W3C//DTD SVG 1.1//EN" "http://www.w3.org/Graphics/SVG/1.1/DTD/svg11.dtd">
<svg width="490pt" height="490pt" viewBox="0 0 490 490" version="1.1" xmlns="http://www.w3.org/2000/svg">
<g id="#1dbdd9ff">
<path fill="#1dbdd9" opacity="1.00" d=" M 182.21 63.21 C 199.77 57.05 218.24 53.55 236.82 52.64 C 239.91 59.46 242.85 66.35 245.96 73.16 C 248.99 66.31 252.07 59.49 255.10 52.65 C 291.82 54.31 328.00 66.73 357.90 88.15 C 385.99 108.06 408.61 135.64 422.58 167.12 C 432.29 188.76 437.78 212.24 439.03 235.92 C 432.02 239.04 425.00 242.13 418.00 245.27 C 425.02 248.40 432.08 251.45 439.08 254.66 C 437.11 297.83 420.26 340.17 391.70 372.64 C 365.79 402.49 330.53 424.12 292.10 433.44 C 279.62 436.53 266.82 438.25 253.99 438.85 C 251.30 432.83 248.61 426.80 245.95 420.77 C 243.28 426.78 240.56 432.79 237.99 438.85 C 208.08 437.62 178.45 429.41 152.30 414.81 C 119.17 396.49 91.63 368.21 74.28 334.55 C 61.19 309.44 53.89 281.38 52.82 253.10 C 58.68 250.47 64.57 247.89 70.43 245.26 C 64.58 242.60 58.66 240.12 52.83 237.42 C 54.28 202.69 65.28 168.40 84.51 139.44 C 107.53 104.22 142.48 77.02 182.21 63.21 M 242.11 97.06 C 204.58 97.74 167.68 113.61 141.16 140.13 C 117.78 163.19 102.44 194.20 98.38 226.79 C 94.26 258.77 100.78 292.07 117.02 319.97 C 133.71 349.08 160.57 372.21 191.86 384.33 C 217.50 394.40 245.96 396.99 273.04 392.02 C 301.26 386.89 327.77 373.23 348.53 353.47 C 368.51 334.43 383.14 309.79 390.00 283.04 C 397.49 253.99 396.04 222.67 385.65 194.51 C 375.39 166.40 356.37 141.59 331.92 124.34 C 306.01 105.81 273.95 96.05 242.11 97.06 Z" />
<path fill="#1dbdd9" opacity="1.00" d=" M 173.26 153.90 C 195.31 172.49 217.34 191.10 239.36 209.73 C 241.40 211.33 243.18 213.56 245.87 214.06 C 249.98 215.14 253.24 218.06 256.37 220.79 C 263.05 227.15 268.83 234.50 273.32 242.57 C 275.20 246.12 276.94 249.93 276.88 254.04 C 276.84 255.65 277.78 257.02 278.45 258.42 C 291.88 284.92 305.23 311.47 318.69 337.96 C 295.48 318.34 272.24 298.74 249.04 279.10 C 247.16 277.53 244.50 277.61 242.46 276.32 C 238.02 273.64 234.28 269.96 230.76 266.19 C 224.74 259.33 219.15 251.86 215.84 243.28 C 214.75 240.84 215.40 238.03 214.50 235.57 C 200.76 208.34 186.99 181.13 173.26 153.90 M 242.40 233.61 C 236.64 235.11 232.62 241.05 233.20 246.96 C 233.53 254.51 241.64 260.29 248.89 258.34 C 256.21 256.83 260.85 248.14 257.83 241.26 C 255.67 235.19 248.55 231.69 242.40 233.61 Z" />
<path fill="#1dbdd9" opacity="1.00" d=" M 246.73 162.13 C 247.81 177.82 248.12 194.16 254.62 208.76 C 252.15 207.35 249.36 206.59 246.93 205.13 C 241.83 200.92 236.81 196.61 231.77 192.33 C 236.69 182.23 241.85 172.25 246.73 162.13 Z" />
<path fill="#1dbdd9" opacity="1.00" d=" M 262.07 214.76 C 272.59 215.43 282.77 212.02 292.72 209.05 C 287.43 217.94 281.61 227.05 279.95 237.44 C 275.20 229.03 269.15 221.32 262.07 214.76 Z" />
<path fill="#1dbdd9" opacity="1.00" d=" M 164.49 226.68 C 175.37 224.19 186.28 221.82 197.16 219.31 C 199.84 224.80 202.62 230.23 205.42 235.66 C 207.13 238.61 206.85 242.16 207.87 245.35 C 203.53 241.65 198.37 239.10 193.22 236.73 C 183.93 232.62 174.25 229.48 164.49 226.68 Z" />
<path fill="#1dbdd9" opacity="1.00" d=" M 243.46 238.63 C 247.87 237.00 253.19 240.29 253.68 244.95 C 254.43 249.47 250.49 253.96 245.93 253.85 C 241.73 254.00 238.02 250.14 238.12 245.99 C 238.09 242.71 240.36 239.63 243.46 238.63 Z" />
<path fill="#1dbdd9" opacity="1.00" d=" M 284.01 246.16 C 296.67 255.82 312.37 260.20 327.38 264.77 C 316.51 267.23 305.64 269.70 294.76 272.14 C 291.87 266.66 289.22 261.07 286.33 255.60 C 284.68 252.72 284.97 249.25 284.01 246.16 Z" />
<path fill="#1dbdd9" opacity="1.00" d=" M 199.15 282.45 C 204.36 273.56 209.98 264.56 212.01 254.32 C 216.80 262.55 222.73 270.11 229.66 276.64 C 219.20 276.21 209.02 279.33 199.15 282.45 Z" />
<path fill="#1dbdd9" opacity="1.00" d=" M 237.16 282.54 C 239.48 284.14 242.25 284.85 244.70 286.20 C 249.95 290.32 254.83 294.91 260.11 299.02 C 255.20 309.20 250.04 319.25 245.07 329.41 C 244.15 313.64 243.69 297.19 237.16 282.54 Z" />
</g>
</svg>
