<?xml version="1.0" encoding="UTF-8" ?>
<!DOCTYPE svg PUBLIC "-//W3C//DTD SVG 1.1//EN" "http://www.w3.org/Graphics/SVG/1.1/DTD/svg11.dtd">
<svg width="256pt" height="256pt" viewBox="0 0 256 256" version="1.1" xmlns="http://www.w3.org/2000/svg">
<style type="text/css">
	path{fill:#1dbdd9;stroke:#1dbdd9;stroke-width:7;stroke-miterlimit:10;}
</style>
<g id="#1dbdd9ff">
<path fill="#1dbdd9" opacity="1.00" d=" M 117.90 0.00 L 138.27 0.00 C 164.52 2.35 190.13 12.44 210.25 29.56 C 229.82 45.96 244.53 68.17 251.38 92.80 C 253.78 100.99 255.03 109.45 256.00 117.91 L 256.00 138.27 C 253.88 161.18 246.09 183.65 232.57 202.35 C 215.95 225.58 191.57 243.28 164.05 251.14 C 155.59 253.67 146.85 255.00 138.10 256.00 L 117.73 256.00 C 91.46 253.65 65.82 243.54 45.69 226.39 C 26.16 210.01 11.48 187.83 4.63 163.24 C 2.23 155.04 0.98 146.57 0.00 138.09 L 0.00 117.73 C 1.01 109.32 2.24 100.91 4.63 92.77 C 11.48 68.16 26.18 45.97 45.71 29.59 C 65.89 12.42 91.58 2.29 117.90 0.00 M 111.59 11.62 C 88.98 14.97 67.23 24.74 50.23 40.08 C 29.32 58.25 15.57 84.22 11.62 111.60 C 10.10 122.48 10.10 133.52 11.62 144.40 C 15.57 171.75 29.29 197.69 50.16 215.85 C 67.17 231.24 88.96 241.03 111.59 244.38 C 122.47 245.90 133.51 245.90 144.39 244.38 C 146.39 244.01 148.40 243.67 150.42 243.38 C 164.10 240.55 177.34 235.53 189.26 228.23 C 217.12 211.31 237.15 182.40 243.38 150.42 C 245.76 137.62 246.24 124.49 244.38 111.59 C 240.59 85.42 227.88 60.53 208.48 42.53 C 191.04 25.86 168.24 15.12 144.42 11.62 C 133.53 10.10 122.48 10.10 111.59 11.62 Z" />
<path fill="#1dbdd9" opacity="1.00" d=" M 122.46 64.33 C 131.46 63.25 141.18 63.97 149.00 68.97 C 160.21 75.58 165.20 90.14 162.13 102.51 C 159.40 113.22 151.65 121.51 145.54 130.40 C 142.32 135.22 137.78 139.57 136.84 145.53 C 135.96 149.37 137.02 153.39 136.21 157.22 C 131.15 157.90 125.97 157.27 120.86 157.54 C 119.46 154.34 119.94 150.76 120.33 147.40 C 120.31 142.22 121.73 137.09 124.74 132.84 C 130.25 125.00 136.19 117.46 141.53 109.49 C 144.18 105.48 146.64 100.96 146.55 96.02 C 146.90 90.60 144.47 85.01 139.98 81.87 C 133.73 77.56 124.94 77.67 118.57 81.65 C 113.31 85.23 111.15 91.56 109.78 97.48 C 104.59 96.96 99.02 96.76 94.32 94.34 C 95.70 88.51 97.08 82.45 100.71 77.54 C 105.74 70.34 113.82 65.64 122.46 64.33 Z" />
<path fill="#1dbdd9" opacity="1.00" d=" M 119.45 171.87 C 125.10 170.15 131.27 171.09 137.09 171.41 C 137.74 177.90 137.75 184.52 137.12 191.01 C 131.31 190.99 125.49 191.00 119.68 191.01 C 119.29 184.63 119.63 178.25 119.45 171.87 Z" />
</g>
</svg>
