<?xml version="1.0" encoding="UTF-8" ?>
<!DOCTYPE svg PUBLIC "-//W3C//DTD SVG 1.1//EN" "http://www.w3.org/Graphics/SVG/1.1/DTD/svg11.dtd">
<svg width="512pt" height="512pt" viewBox="0 0 512 512" version="1.1" xmlns="http://www.w3.org/2000/svg">
<g id="#1dbdd9ff">
<path fill="#1dbdd9" opacity="1.00" d=" M 25.04 44.04 C 24.95 40.75 28.91 40.42 31.01 38.97 C 33.15 40.15 35.28 41.35 37.39 42.58 C 38.54 48.39 41.47 54.52 47.30 56.84 C 51.08 58.37 52.34 63.44 56.57 64.08 C 61.01 65.09 65.46 66.03 69.92 66.94 C 71.44 66.07 72.93 65.12 74.54 64.41 C 76.00 64.55 77.38 65.08 78.79 65.47 C 79.39 64.25 80.01 63.03 80.64 61.82 C 83.10 60.64 85.29 59.01 87.43 57.34 C 90.03 55.28 93.24 54.05 95.52 51.58 C 100.77 45.71 108.49 43.16 114.98 38.98 C 119.28 43.11 123.37 47.47 127.71 51.57 C 124.53 52.54 121.32 53.44 118.10 54.22 C 120.38 55.83 122.67 57.43 124.91 59.09 C 124.33 60.46 123.86 61.87 123.14 63.17 C 120.87 64.33 118.42 65.05 116.03 65.92 C 121.22 70.72 125.16 77.28 132.13 79.76 C 133.78 79.75 135.43 79.49 137.08 79.33 C 138.16 85.75 139.27 92.17 140.53 98.57 C 142.50 100.51 144.31 102.64 146.48 104.38 C 150.59 105.99 154.85 107.40 159.17 108.33 C 163.18 108.08 167.19 108.79 170.98 110.08 C 172.06 112.89 172.29 115.95 173.33 118.78 C 178.14 122.13 183.50 124.66 188.50 127.73 C 193.37 131.00 199.44 130.76 204.97 131.99 C 209.67 132.44 214.42 134.59 219.14 133.20 C 231.53 130.08 244.02 127.42 256.39 124.24 C 256.86 125.39 257.33 126.55 257.80 127.71 C 260.41 127.50 263.02 127.31 265.64 127.18 C 264.51 121.88 263.33 116.59 262.18 111.29 C 264.34 111.77 266.49 112.25 268.65 112.71 C 272.19 111.20 275.82 109.84 279.10 107.81 C 282.71 108.36 284.62 105.28 286.27 102.67 C 286.26 102.13 286.25 101.06 286.25 100.52 C 290.34 96.76 294.51 93.05 299.15 89.96 C 301.67 88.10 305.02 88.63 307.96 88.30 C 310.14 87.85 311.99 89.13 313.82 90.08 C 315.46 89.67 317.10 89.29 318.75 88.92 C 319.77 89.58 320.81 90.25 321.85 90.90 C 322.99 89.97 324.13 89.03 325.28 88.10 C 324.67 87.58 323.44 86.54 322.82 86.03 C 325.62 83.46 329.59 84.20 333.04 83.57 C 335.60 85.35 338.78 85.58 341.77 86.00 C 342.42 85.09 343.06 84.18 343.71 83.28 C 346.22 86.42 349.20 89.49 349.56 93.71 C 355.63 95.03 361.77 96.05 367.82 97.48 C 369.70 97.71 370.18 99.86 371.23 101.14 C 372.93 102.03 374.64 102.91 376.35 103.79 C 376.81 102.42 377.28 101.05 377.75 99.68 C 378.95 100.58 380.15 101.49 381.35 102.39 C 382.46 101.95 383.60 101.60 384.77 101.34 C 388.37 102.67 391.69 104.67 395.12 106.40 C 396.05 106.49 396.98 106.58 397.92 106.68 C 398.82 108.78 400.91 110.79 399.90 113.24 C 404.58 115.76 409.05 118.67 413.84 120.99 C 418.89 122.70 420.08 128.55 422.94 132.48 C 430.25 132.19 437.58 132.43 444.88 131.77 C 444.85 135.43 444.00 139.15 444.82 142.78 C 445.29 145.13 445.97 147.46 446.24 149.85 C 445.00 150.89 443.63 151.75 442.30 152.66 C 444.69 156.07 446.62 159.77 448.44 163.52 C 443.27 171.72 441.69 181.36 438.13 190.25 C 435.90 191.36 433.67 192.45 431.43 193.53 C 432.95 195.04 434.46 196.57 435.94 198.12 C 435.78 200.10 435.64 202.08 435.48 204.07 C 433.35 203.37 431.23 202.66 429.09 202.01 C 427.98 204.39 426.50 206.66 425.89 209.25 C 425.73 212.12 425.54 215.08 426.02 217.93 C 427.38 220.36 429.39 222.34 431.03 224.59 C 433.22 225.13 435.43 225.62 437.64 226.10 C 434.20 230.24 430.80 234.43 427.23 238.46 C 429.83 246.68 432.83 254.77 435.27 263.04 C 433.26 270.16 435.01 277.55 435.48 284.78 C 442.96 286.14 450.53 286.91 457.98 288.36 C 458.68 292.58 459.88 296.73 460.18 301.01 C 460.53 302.99 459.09 304.54 458.00 305.99 C 450.66 314.89 443.45 323.89 436.11 332.79 C 443.41 342.02 452.36 351.18 453.84 363.41 C 456.74 366.03 459.44 368.88 462.52 371.31 C 466.35 372.89 470.53 373.41 474.40 374.92 C 476.68 376.04 478.59 377.76 480.67 379.21 C 481.31 379.18 482.59 379.13 483.23 379.10 C 483.45 380.76 483.67 382.43 483.89 384.11 C 483.22 384.43 481.89 385.08 481.22 385.41 C 482.04 393.24 486.04 401.12 483.34 408.96 C 486.62 408.66 489.90 408.35 493.21 408.26 C 494.18 409.04 495.17 409.82 496.16 410.61 C 495.50 412.20 494.85 413.78 494.19 415.37 C 495.57 418.65 495.80 422.33 494.70 425.74 C 486.54 426.91 478.22 427.32 470.19 429.41 C 469.49 431.16 469.58 433.61 467.67 434.59 C 464.75 436.35 461.66 437.81 458.67 439.45 C 457.24 448.31 455.80 457.16 454.25 466.00 C 453.87 468.78 451.80 470.83 450.28 473.05 C 447.73 471.81 445.27 470.40 442.67 469.30 C 438.35 467.77 433.63 468.04 429.27 466.73 C 427.88 465.19 427.15 463.18 426.17 461.38 C 425.40 462.01 424.62 462.64 423.86 463.28 C 424.62 464.30 425.39 465.33 426.15 466.36 C 424.01 465.82 421.96 465.00 419.85 464.38 C 415.18 464.57 410.51 463.99 405.86 464.62 C 403.20 463.89 400.83 462.37 398.19 461.60 C 395.22 462.84 392.22 464.39 388.89 463.66 C 387.53 462.21 386.16 460.79 384.80 459.36 C 380.93 458.69 377.06 457.99 373.19 457.32 C 372.07 458.13 371.01 459.05 369.81 459.75 C 368.30 459.61 366.86 459.11 365.42 458.72 C 364.76 456.74 364.13 454.75 363.53 452.76 C 362.07 454.28 360.62 455.82 359.14 457.31 C 358.92 455.43 358.73 453.55 358.54 451.68 C 355.17 452.05 351.79 452.33 348.42 452.57 C 346.13 449.25 343.79 445.97 341.43 442.71 C 342.35 441.36 343.26 440.01 344.19 438.68 C 342.85 436.49 341.42 434.33 340.35 431.99 C 339.76 428.19 341.03 424.09 339.24 420.51 C 337.46 415.71 332.84 413.03 329.41 409.54 C 324.35 409.72 319.28 409.73 314.23 410.24 C 311.39 413.08 308.24 415.65 304.38 416.96 C 303.87 419.01 303.40 421.08 302.95 423.15 C 298.85 423.54 294.73 423.81 290.62 423.78 C 288.12 427.22 285.35 430.46 282.33 433.45 C 281.33 432.29 280.34 431.15 279.33 430.02 C 276.22 428.85 273.82 426.55 271.18 424.65 C 266.98 423.45 262.60 423.77 258.36 424.55 C 255.31 421.99 251.55 419.43 252.02 414.88 C 247.11 413.96 242.13 413.36 237.29 412.10 C 234.01 409.78 231.11 406.97 228.01 404.43 C 228.24 402.93 228.50 401.44 228.85 399.97 C 223.87 397.18 218.65 394.79 214.38 390.91 C 210.88 391.25 207.36 391.20 203.86 391.16 C 200.71 387.16 195.72 383.73 196.06 378.06 C 191.66 374.53 190.42 368.86 189.22 363.65 C 187.34 362.47 185.46 361.29 183.58 360.12 C 183.67 357.98 183.88 355.82 184.78 353.84 C 183.08 353.80 181.37 353.82 179.68 353.83 C 180.21 350.96 180.92 348.08 180.80 345.15 C 178.64 341.12 176.65 336.47 172.36 334.28 C 171.99 333.07 171.63 331.87 171.28 330.67 C 170.52 330.82 169.00 331.11 168.24 331.25 C 168.34 327.59 168.80 323.37 165.04 321.29 C 162.30 322.82 159.74 324.68 156.84 325.90 C 153.60 325.94 150.85 324.01 147.94 322.89 C 144.48 321.51 141.22 319.68 137.97 317.89 C 138.69 316.63 139.41 315.39 140.13 314.14 C 141.52 314.78 142.92 315.41 144.32 316.04 C 144.88 314.88 145.45 313.73 146.02 312.57 C 143.93 312.31 141.85 312.04 139.78 311.73 C 138.88 314.20 137.97 316.67 137.08 319.15 C 138.02 321.97 138.95 324.79 139.89 327.63 C 137.41 327.37 134.93 327.13 132.47 326.76 C 131.87 328.01 131.29 329.25 130.70 330.51 C 128.11 328.35 125.75 325.96 123.63 323.34 C 123.63 321.75 123.62 320.17 123.62 318.59 C 123.16 319.18 122.25 320.35 121.79 320.94 C 119.91 319.07 118.43 316.86 117.31 314.46 C 116.29 314.31 115.27 314.16 114.25 314.01 C 114.21 308.29 114.52 302.58 114.75 296.86 C 112.06 297.56 109.37 298.24 106.69 298.95 C 105.76 294.98 104.46 291.06 104.14 286.98 C 106.15 282.04 108.95 277.47 111.40 272.74 C 108.48 269.58 105.46 266.51 102.75 263.18 C 100.44 260.56 99.72 257.06 98.49 253.89 C 93.78 254.25 89.58 251.70 86.12 248.79 C 82.24 245.52 78.06 242.64 74.09 239.49 C 71.93 239.49 69.77 239.51 67.61 239.56 C 67.31 237.75 66.87 235.98 66.39 234.22 C 67.49 233.61 68.59 233.00 69.69 232.39 C 67.89 229.77 66.15 227.11 64.41 224.45 C 62.80 224.72 61.19 225.00 59.58 225.27 C 60.89 224.44 62.19 223.60 63.50 222.78 C 61.05 222.20 58.57 221.74 56.06 221.54 C 54.58 218.51 53.04 215.52 51.67 212.44 C 51.00 212.49 49.68 212.60 49.02 212.65 C 48.86 211.27 48.70 209.89 48.54 208.51 C 49.89 207.14 51.25 205.78 52.62 204.43 C 52.62 202.86 52.62 201.29 52.63 199.73 C 52.06 199.73 50.94 199.74 50.38 199.75 C 50.51 196.04 51.65 192.50 52.78 189.01 C 53.93 189.99 55.08 190.97 56.23 191.95 C 56.85 191.66 58.08 191.08 58.70 190.79 C 57.81 189.85 56.93 188.92 56.04 187.99 C 58.91 184.98 62.23 181.99 62.46 177.53 C 64.61 176.68 66.76 175.83 68.93 175.03 C 67.78 169.26 66.32 163.56 64.94 157.85 C 67.09 157.02 69.25 156.22 71.43 155.48 C 66.88 155.48 62.34 155.68 57.81 156.03 C 54.16 155.66 52.00 150.85 48.03 151.68 C 47.32 151.72 45.89 151.81 45.18 151.85 C 45.27 146.95 45.20 142.05 45.25 137.14 C 43.57 137.61 41.90 138.08 40.23 138.55 C 38.77 135.47 39.30 132.06 39.56 128.79 C 38.75 129.01 37.15 129.44 36.34 129.66 C 35.66 128.04 34.87 126.45 34.39 124.75 C 34.76 123.45 35.40 122.26 35.92 121.02 C 35.33 120.92 34.14 120.71 33.55 120.61 C 33.73 118.25 33.88 115.88 33.98 113.51 C 32.03 112.00 30.08 110.48 28.13 108.97 C 28.68 106.70 29.23 104.42 29.61 102.12 C 29.10 101.48 28.08 100.21 27.56 99.57 C 26.70 99.69 25.84 99.81 24.98 99.94 C 24.41 97.67 22.29 97.02 20.35 96.35 C 19.72 95.49 19.09 94.64 18.45 93.79 C 20.44 91.64 22.41 89.47 24.38 87.31 C 22.66 84.72 24.45 82.02 25.26 79.47 C 24.39 79.85 23.51 80.22 22.63 80.59 C 22.04 75.68 21.57 70.74 20.57 65.88 C 19.41 65.48 18.25 65.06 17.09 64.65 C 17.74 62.77 18.42 60.90 19.09 59.03 C 17.98 58.10 16.88 57.17 15.77 56.23 C 15.79 54.55 15.81 52.88 15.84 51.20 C 18.63 50.55 21.44 50.82 24.14 51.76 C 24.39 49.18 24.59 46.59 25.04 44.04 Z" />
<path fill="#1dbdd9" opacity="1.00" d=" M 307.02 417.30 C 312.69 419.01 317.71 412.60 323.13 415.87 C 319.46 417.75 317.06 421.10 314.88 424.47 C 312.69 424.30 310.50 424.18 308.31 424.11 C 304.80 426.74 300.88 428.71 296.86 430.43 C 296.45 428.79 296.04 427.16 295.62 425.53 C 299.79 424.29 304.08 423.39 308.18 421.88 C 309.09 420.16 307.85 418.72 307.02 417.30 Z" />
</g>
</svg>
