<?xml version="1.0" encoding="UTF-8" ?>
<!DOCTYPE svg PUBLIC "-//W3C//DTD SVG 1.1//EN" "http://www.w3.org/Graphics/SVG/1.1/DTD/svg11.dtd">
<svg width="512pt" height="512pt" viewBox="0 -80 512 542" version="1.1" xmlns="http://www.w3.org/2000/svg">
<g id="#1dbdd9ff">
<path fill="#1dbdd9" opacity="1.00" d=" M 252.47 51.66 C 258.91 49.18 264.08 54.62 268.96 57.87 C 284.25 69.22 302.45 76.73 321.40 78.90 C 343.27 81.72 365.82 77.46 385.40 67.42 C 391.10 65.19 396.75 60.53 403.22 62.72 C 409.72 65.02 411.04 72.58 414.12 77.92 C 438.33 125.04 448.64 179.30 442.53 231.98 C 437.83 275.68 422.17 318.14 397.55 354.55 C 365.85 401.97 318.73 438.83 265.07 458.17 C 261.44 459.31 257.86 461.68 253.90 460.68 C 220.91 449.49 189.89 432.28 163.47 409.52 C 125.23 376.94 96.27 333.57 80.95 285.72 C 61.13 225.07 63.73 157.43 88.37 98.55 C 92.49 88.25 97.68 78.42 102.49 68.43 C 105.00 62.75 112.44 60.56 117.83 63.36 C 129.83 69.08 141.93 75.01 155.09 77.49 C 183.51 83.41 214.18 77.48 238.21 61.17 C 243.08 58.18 247.30 54.14 252.47 51.66 M 243.71 144.54 C 239.25 152.20 237.38 161.19 237.52 170.01 C 237.52 186.23 237.51 202.45 237.53 218.67 C 205.21 245.25 172.56 271.45 140.37 298.17 C 139.68 305.74 140.27 313.44 140.11 321.05 C 139.86 322.84 142.19 323.31 143.42 322.61 C 174.80 310.79 206.12 298.79 237.48 286.92 C 237.98 301.33 238.49 315.73 238.95 330.15 C 228.93 338.53 218.83 346.81 208.69 355.04 C 208.44 361.39 208.45 367.76 208.64 374.11 C 209.84 376.37 212.37 374.72 214.12 374.19 C 228.04 368.82 242.10 363.82 255.99 358.39 C 270.20 363.93 284.56 369.06 298.79 374.54 C 300.29 375.13 302.35 375.97 303.34 374.11 C 303.54 367.76 303.53 361.39 303.31 355.05 C 293.20 346.77 283.06 338.54 273.05 330.15 C 273.49 315.71 273.99 301.28 274.53 286.85 C 305.48 298.77 336.54 310.43 367.52 322.27 C 368.94 322.98 371.80 323.48 371.85 321.17 C 371.82 313.51 372.22 305.75 371.62 298.15 C 339.38 271.49 306.79 245.23 274.47 218.66 C 274.47 202.11 274.48 185.56 274.47 169.01 C 274.47 161.08 272.77 153.09 269.16 146.00 C 266.55 141.15 261.96 136.45 256.04 136.67 C 250.76 136.56 246.28 140.18 243.71 144.54 Z" />
</g>
</svg>
