<?xml version="1.0" encoding="UTF-8" ?>
<!DOCTYPE svg PUBLIC "-//W3C//DTD SVG 1.1//EN" "http://www.w3.org/Graphics/SVG/1.1/DTD/svg11.dtd">
<svg width="500pt" height="500pt" viewBox="0 -80 500 560" version="1.1" xmlns="http://www.w3.org/2000/svg">
<g id="#1dbdd9ff">
<path fill="#1dbdd9" opacity="1.00" d=" M 236.46 53.67 C 242.65 51.24 247.76 56.29 252.43 59.50 C 267.71 70.91 285.86 78.58 304.83 80.82 C 327.12 83.84 350.12 79.43 370.04 69.12 C 374.96 67.28 379.53 63.43 385.09 64.29 C 388.74 64.60 391.96 67.18 393.51 70.45 C 398.55 80.84 403.84 91.13 408.15 101.85 C 435.27 167.49 434.80 243.80 407.09 309.16 C 390.74 348.51 364.94 383.89 332.54 411.56 C 306.08 434.25 275.10 451.53 242.10 462.68 C 238.11 463.67 234.50 461.30 230.85 460.13 C 190.90 445.66 154.47 421.62 125.50 390.52 C 94.20 357.17 71.48 315.80 60.25 271.46 C 46.40 217.83 49.56 159.96 69.33 108.21 C 74.18 94.97 80.59 82.40 86.84 69.79 C 89.44 64.79 96.01 62.87 101.08 65.02 C 107.66 68.09 114.19 71.26 120.90 74.04 C 143.62 83.11 169.44 84.18 192.84 77.06 C 205.36 73.41 217.01 67.17 227.52 59.50 C 230.46 57.51 233.16 55.07 236.46 53.67 M 227.70 146.56 C 223.24 154.21 221.41 163.18 221.52 171.98 C 221.52 188.21 221.51 204.44 221.53 220.67 C 189.50 246.94 157.30 273.01 125.29 299.30 C 123.95 300.02 124.10 301.65 124.07 302.95 C 124.09 309.99 124.06 317.03 124.13 324.06 C 124.59 324.35 125.51 324.93 125.97 325.22 C 157.78 313.04 189.68 301.10 221.46 288.84 C 222.00 303.28 222.48 317.71 222.95 332.15 C 212.94 340.52 202.85 348.81 192.70 357.02 C 192.43 363.38 192.45 369.76 192.64 376.12 C 193.86 378.37 196.38 376.71 198.14 376.19 C 212.05 370.82 226.10 365.82 240.00 360.39 C 254.17 365.93 268.51 371.04 282.72 376.51 C 284.24 377.10 286.33 378.00 287.34 376.11 C 287.54 369.76 287.53 363.40 287.31 357.05 C 277.20 348.77 267.06 340.54 257.05 332.15 C 257.47 317.71 258.04 303.29 258.53 288.85 C 289.48 300.77 320.53 312.42 351.50 324.26 C 352.95 325.02 355.92 325.46 355.85 323.06 C 356.06 316.72 355.77 310.37 355.94 304.03 C 355.79 302.44 356.43 300.29 354.74 299.33 C 322.69 273.06 290.51 246.94 258.47 220.66 C 258.48 204.43 258.47 188.20 258.47 171.97 C 258.57 163.47 256.85 154.84 252.79 147.33 C 250.16 142.75 245.67 138.44 240.03 138.67 C 234.74 138.57 230.26 142.20 227.70 146.56 Z" />
</g>
</svg>
