<?xml version="1.0" encoding="UTF-8" ?>
<!DOCTYPE svg PUBLIC "-//W3C//DTD SVG 1.1//EN" "http://www.w3.org/Graphics/SVG/1.1/DTD/svg11.dtd">
<svg width="268pt" height="268pt" viewBox="0 0 268 268" version="1.1" xmlns="http://www.w3.org/2000/svg">
<g id="#1dbdd9ff">
<path fill="#1dbdd9" opacity="1.00" d=" M 163.76 6.06 C 164.91 2.83 168.13 -0.59 171.87 0.38 C 175.30 1.58 177.49 4.66 179.78 7.29 C 183.91 12.03 187.86 16.93 191.78 21.85 C 201.04 16.66 210.25 11.38 219.83 6.82 C 221.94 6.03 224.27 4.59 226.55 5.57 C 228.77 6.53 229.72 8.95 230.93 10.87 C 220.32 18.95 209.65 26.95 199.03 35.00 C 202.68 40.64 206.33 46.27 210.00 51.89 C 215.02 51.40 220.04 50.87 225.07 50.34 C 226.00 52.62 226.93 54.90 227.87 57.18 C 222.66 58.61 217.05 59.37 212.40 62.26 C 207.89 66.42 205.16 72.09 201.96 77.25 C 200.78 74.84 199.59 72.44 198.40 70.04 C 199.99 66.05 201.54 62.05 203.13 58.07 C 198.15 52.93 193.17 47.77 188.18 42.63 C 177.84 51.14 167.57 59.73 157.18 68.17 C 155.24 65.35 153.00 61.56 155.18 58.23 C 161.62 47.94 170.02 39.08 177.73 29.75 C 173.85 24.46 169.96 19.19 166.07 13.91 C 164.44 11.68 162.70 8.92 163.76 6.06 Z" />
<path fill="#1dbdd9" opacity="1.00" d=" M 95.14 59.26 C 114.54 56.53 134.91 60.22 151.81 70.23 C 168.90 80.12 182.59 95.85 189.73 114.29 C 197.81 134.80 197.78 158.37 189.58 178.85 C 183.01 195.62 170.98 210.05 156.01 219.99 C 140.18 230.34 120.94 235.58 102.05 234.13 C 80.20 232.92 58.93 222.99 44.09 206.88 C 29.08 191.54 20.40 170.39 19.93 148.96 C 18.71 116.22 37.75 83.82 66.64 68.54 C 75.50 63.79 85.23 60.79 95.14 59.26 M 67.62 81.77 C 68.57 81.78 70.47 81.82 71.42 81.84 C 71.34 82.43 71.17 83.63 71.09 84.22 C 72.38 84.21 73.67 84.20 74.96 84.19 C 75.21 84.63 75.70 85.50 75.94 85.93 C 74.37 85.86 72.80 85.79 71.23 85.70 C 69.60 84.30 67.50 83.78 65.51 83.10 C 52.38 92.10 42.00 105.04 36.41 119.98 C 36.99 120.28 38.16 120.88 38.74 121.19 C 38.75 123.17 38.67 125.17 38.90 127.16 C 40.08 129.84 41.40 133.52 45.07 132.93 C 43.69 129.08 40.57 125.73 41.40 121.32 C 43.46 122.76 43.13 125.51 44.28 127.50 C 45.37 129.41 46.70 131.16 47.94 132.96 C 47.65 133.49 47.05 134.55 46.76 135.08 C 47.73 136.41 48.56 137.89 49.76 139.04 C 51.54 139.78 53.45 140.13 55.31 140.65 C 56.33 140.36 57.35 140.08 58.37 139.82 C 58.85 142.78 62.15 142.47 64.22 143.65 C 65.96 145.14 67.36 146.98 68.89 148.68 C 70.85 148.81 72.82 148.95 74.78 149.08 C 74.95 150.71 75.12 152.34 75.30 153.98 C 73.99 154.87 72.67 155.76 71.36 156.65 C 71.18 159.07 70.91 161.48 70.59 163.88 C 72.94 166.93 75.81 169.72 77.12 173.43 C 79.61 174.45 81.81 176.01 83.96 177.61 C 84.00 181.72 83.76 185.84 84.05 189.94 C 84.38 190.46 85.04 191.49 85.37 192.01 C 85.10 193.75 84.76 195.49 84.60 197.26 C 85.21 198.69 86.27 199.89 87.14 201.18 C 87.00 203.14 86.75 205.11 86.85 207.09 C 88.35 211.42 91.41 214.91 94.98 217.69 C 96.81 217.59 98.63 217.46 100.45 217.28 C 99.24 215.76 97.88 214.36 96.53 212.97 C 96.89 211.53 97.24 210.09 97.59 208.65 C 96.35 208.19 95.12 207.74 93.89 207.27 C 94.68 206.21 95.51 205.18 96.21 204.07 C 95.57 203.57 94.28 202.57 93.63 202.07 C 96.37 201.20 99.41 200.70 101.64 198.77 C 103.79 195.80 105.85 192.76 108.19 189.93 C 107.82 188.30 107.45 186.68 107.08 185.06 C 107.55 184.27 108.02 183.48 108.49 182.70 C 110.25 182.44 112.28 183.00 113.86 182.01 C 117.95 179.72 115.45 174.01 117.48 170.49 C 118.86 168.47 120.32 166.48 121.20 164.17 C 120.10 163.79 118.99 163.41 117.89 163.04 C 117.22 161.97 116.54 160.89 115.86 159.83 C 111.70 160.11 107.56 159.56 103.77 157.75 C 103.57 155.26 102.94 152.83 101.76 150.62 C 100.10 150.60 98.44 150.59 96.79 150.59 C 95.50 148.61 94.17 146.64 92.38 145.07 C 89.78 146.60 86.28 147.27 84.59 144.10 C 83.12 143.78 81.66 143.45 80.19 143.14 C 78.86 144.66 77.54 146.18 76.22 147.71 C 74.16 147.36 72.10 147.01 70.04 146.67 C 69.89 144.33 69.74 141.99 69.59 139.66 C 68.12 139.43 66.65 139.19 65.18 138.97 C 65.89 137.41 66.63 135.84 67.02 134.16 C 63.33 134.33 60.93 138.63 56.86 137.27 C 56.33 136.18 55.80 135.08 55.28 133.98 C 56.37 131.13 57.11 127.44 60.28 126.20 C 63.86 124.08 68.19 125.29 72.11 125.01 C 72.12 125.69 72.12 127.05 72.13 127.74 C 73.21 128.23 74.29 128.72 75.37 129.21 C 75.29 127.56 75.21 125.92 75.13 124.27 C 77.32 122.22 79.76 120.49 82.28 118.89 C 82.36 118.33 82.53 117.22 82.62 116.67 C 84.89 114.21 87.24 111.75 90.20 110.11 C 92.91 108.70 94.34 104.44 97.96 105.78 L 98.53 104.83 C 97.74 104.59 96.16 104.12 95.37 103.88 C 96.15 102.68 97.35 102.01 98.70 101.63 C 99.02 102.18 99.66 103.29 99.98 103.85 C 100.57 103.70 101.74 103.41 102.32 103.26 C 103.39 102.84 104.46 102.44 105.56 102.08 C 105.05 102.96 104.02 104.73 103.51 105.61 C 105.55 106.42 107.65 107.01 109.78 107.48 C 109.41 105.19 107.19 104.37 105.51 103.23 C 106.54 102.71 107.59 102.23 108.64 101.75 C 108.65 101.11 108.66 99.81 108.66 99.17 C 107.69 98.61 106.73 98.06 105.76 97.50 C 105.68 95.97 105.60 94.44 105.53 92.91 C 103.76 93.73 101.98 94.52 100.19 95.27 C 100.22 93.93 100.25 92.59 100.28 91.25 C 97.71 90.75 94.89 89.45 92.59 91.40 C 92.59 93.26 92.59 95.11 92.60 96.97 C 91.28 97.42 89.97 97.87 88.65 98.33 C 87.75 99.90 86.77 101.44 85.46 102.69 C 85.26 101.10 85.04 99.52 84.80 97.93 C 83.00 97.28 81.12 96.86 79.32 96.21 C 79.11 95.41 78.70 93.81 78.49 93.02 C 81.70 91.07 84.92 89.12 88.47 87.84 C 88.74 88.52 89.29 89.89 89.56 90.57 C 90.69 89.81 91.84 89.07 93.00 88.35 C 92.68 87.99 92.04 87.26 91.72 86.90 C 92.45 86.79 93.93 86.56 94.67 86.45 C 95.24 85.79 95.82 85.14 96.39 84.50 C 98.09 84.27 99.79 84.04 101.48 83.81 C 102.08 84.27 103.28 85.18 103.88 85.64 C 101.92 86.74 99.95 87.82 97.97 88.88 C 100.47 89.45 102.97 90.06 105.47 90.64 C 105.70 90.03 106.16 88.82 106.39 88.22 C 107.50 88.20 108.60 88.19 109.71 88.18 C 110.00 87.62 110.57 86.51 110.86 85.95 C 110.28 85.79 109.13 85.47 108.55 85.31 C 108.58 84.64 108.62 83.30 108.64 82.63 C 106.15 81.53 103.73 80.23 101.11 79.44 C 98.42 79.37 95.81 80.14 93.38 81.26 C 93.45 82.20 93.59 84.09 93.66 85.03 C 92.63 84.87 91.61 84.70 90.58 84.54 C 90.50 84.03 90.33 83.01 90.24 82.49 C 91.18 81.66 92.12 80.82 93.05 79.99 C 90.40 79.82 87.54 79.38 85.26 81.10 C 85.92 81.50 87.22 82.28 87.88 82.68 C 87.69 83.03 87.33 83.72 87.15 84.07 C 86.54 84.17 85.33 84.38 84.72 84.48 C 83.01 85.72 80.87 85.81 78.84 86.01 C 78.71 85.00 78.58 84.00 78.44 83.00 C 79.69 83.00 80.93 83.00 82.17 83.01 C 83.12 82.07 84.08 81.14 85.03 80.21 C 84.63 80.03 83.82 79.68 83.41 79.50 C 82.71 80.15 82.01 80.80 81.32 81.46 C 80.48 81.42 78.82 81.35 77.98 81.32 C 77.21 80.25 76.43 79.19 75.64 78.13 C 72.77 78.86 70.16 80.28 67.62 81.77 M 151.67 92.86 C 153.27 93.90 154.75 95.13 155.67 96.86 C 156.65 96.47 157.63 96.09 158.61 95.72 C 158.73 96.62 158.98 98.43 159.10 99.33 C 156.98 99.21 154.86 99.19 152.74 99.34 C 151.78 100.72 150.81 102.10 149.84 103.48 C 148.50 103.68 147.16 103.87 145.82 104.07 C 145.68 104.94 145.39 106.66 145.24 107.53 C 145.67 107.64 146.52 107.86 146.95 107.97 C 146.83 108.47 146.59 109.47 146.47 109.97 C 143.85 109.48 141.20 109.48 138.58 109.96 C 138.10 112.24 138.32 114.55 138.65 116.82 C 141.21 117.43 143.84 117.46 146.46 117.37 C 148.52 114.79 149.84 109.50 154.06 110.65 C 154.79 110.00 155.52 109.36 156.25 108.71 C 156.42 109.15 156.74 110.03 156.90 110.47 C 159.06 111.89 161.20 113.36 163.26 114.93 C 161.79 115.25 160.33 115.56 158.88 115.91 C 160.26 116.47 161.66 117.03 163.14 117.25 C 163.80 115.90 164.23 114.47 164.75 113.07 C 163.22 112.23 161.69 111.39 160.15 110.57 C 159.91 109.75 159.43 108.13 159.19 107.31 C 162.22 107.11 164.33 109.24 166.45 111.02 C 166.48 112.06 166.52 113.11 166.56 114.15 C 167.55 115.19 168.54 116.24 169.52 117.29 C 169.91 115.82 170.30 114.36 170.69 112.89 C 171.14 112.64 172.05 112.13 172.50 111.87 C 172.83 113.98 173.49 116.03 174.93 117.66 C 175.74 117.63 177.35 117.59 178.16 117.56 C 173.44 106.59 166.42 96.56 157.31 88.79 C 155.11 89.67 152.85 90.66 151.67 92.86 M 142.17 96.02 C 143.35 97.10 144.63 98.07 145.91 99.05 C 144.49 100.05 143.63 101.48 143.17 103.13 C 145.62 103.03 148.10 102.82 150.38 101.83 C 147.93 99.57 146.17 96.74 145.44 93.48 C 144.21 94.14 142.89 94.74 142.17 96.02 M 137.76 102.14 C 140.08 101.99 144.49 100.47 143.25 97.52 C 139.95 96.43 138.68 99.73 137.76 102.14 M 99.79 108.03 C 98.19 108.15 96.58 108.26 94.98 108.31 C 94.87 108.80 94.67 109.78 94.56 110.27 C 95.70 109.86 96.83 109.44 97.97 109.04 C 99.79 110.30 101.01 108.00 102.47 107.36 C 102.08 107.14 101.32 106.70 100.93 106.49 C 100.65 106.87 100.08 107.64 99.79 108.03 M 148.61 117.98 C 144.72 119.52 140.19 118.34 136.72 121.11 C 136.71 122.62 136.71 124.13 136.71 125.64 C 133.84 127.76 130.84 129.69 128.11 131.98 C 128.47 133.34 129.27 134.41 130.51 135.16 C 128.73 137.76 128.78 140.91 128.79 143.93 C 131.27 146.76 133.75 149.61 136.22 152.45 C 139.99 151.77 144.35 152.97 147.57 150.44 C 148.53 150.42 149.50 150.40 150.47 150.39 C 150.90 150.83 151.76 151.72 152.19 152.17 C 153.83 152.35 155.48 152.52 157.13 152.69 C 156.92 154.86 156.71 157.04 156.50 159.22 C 158.31 162.42 160.11 165.63 161.93 168.83 C 160.93 170.81 159.68 172.71 159.06 174.86 C 158.85 176.80 160.53 178.05 161.53 179.46 C 161.53 181.42 161.52 183.38 161.51 185.34 C 162.49 186.66 163.47 187.99 164.45 189.31 C 164.47 191.08 164.48 192.85 164.49 194.63 C 165.01 194.61 166.03 194.57 166.54 194.54 C 182.56 175.28 187.85 147.98 180.46 124.07 C 176.94 124.33 173.40 124.03 170.83 121.33 C 169.54 121.42 168.24 121.53 166.95 121.63 C 166.95 122.28 166.94 123.56 166.93 124.21 C 163.82 123.05 160.64 122.12 157.41 121.36 C 157.41 119.88 157.41 118.41 157.41 116.94 C 154.47 117.22 151.47 117.16 148.61 117.98 Z" />
<path fill="#1dbdd9" opacity="1.00" d=" M 219.82 69.92 C 229.15 77.22 238.47 84.52 247.80 91.84 C 242.98 93.65 238.16 95.47 233.33 97.23 C 236.67 112.59 236.94 128.49 235.59 144.10 C 233.26 170.11 224.93 196.11 208.75 216.88 C 198.83 229.60 186.15 240.19 171.81 247.59 C 158.25 254.66 143.84 260.13 129.00 263.84 C 113.03 267.74 96.04 269.10 80.01 264.85 C 70.99 262.36 62.55 257.84 55.67 251.49 C 58.18 248.81 60.72 246.16 63.23 243.48 C 71.46 250.81 82.16 255.13 93.11 256.10 C 108.62 257.51 124.19 254.48 138.87 249.58 C 155.45 243.95 171.96 236.90 185.33 225.31 C 205.48 208.36 217.67 183.49 222.46 157.90 C 225.87 139.23 226.63 119.83 222.96 101.14 C 217.84 103.07 212.72 104.99 207.60 106.89 C 211.67 94.57 215.74 82.24 219.82 69.92 Z" />
</g>
</svg>
