<?xml version="1.0" encoding="utf-8"?>
<!-- Generator: Adobe Illustrator 19.0.0, SVG Export Plug-In . SVG Version: 6.00 Build 0)  -->
<svg version="1.1" id="Layer_1" xmlns="http://www.w3.org/2000/svg" xmlns:xlink="http://www.w3.org/1999/xlink" x="0px" y="0px"
	 viewBox="0 0 240 240" style="enable-background:new 0 0 240 240;" xml:space="preserve">
<style type="text/css">
	.st0{fill:#12d584;stroke:#12d584;stroke-width:5;stroke-miterlimit:10;}
	.st1{fill:#12d584;stroke:#12d584;stroke-width:3;stroke-miterlimit:10;}
</style>
<path class="st0" d="M198.3,114c0.7-2.3,1.4-4.5,2.2-6.8c12.1,4.7,24.8,10.3,32.6,21.2c5.5,7.2,5.2,18-0.4,25.1
	c-8.9,11.5-22.9,17.4-36.3,22c-31.9,10.1-65.9,12.2-99.1,9.8c-0.6-2.3-1.1-4.6-1.7-7c29.8,2.1,60.1,0.9,89.1-6.6
	c12.3-3.4,24.7-7.6,35.1-15.2c4.8-3.7,9.6-8.4,10.3-14.7c0.5-6.3-3.9-11.6-8.3-15.4C215,120.7,206.8,116.9,198.3,114 M20.1,107.5
	c7.6,0.8,15.2,1.6,22.8,2.4c-4.4,6.2-9.1,12.3-13.4,18.6c-1.1-2.5-2.1-4.9-3.2-7.4c-6.8,4-14.1,9.4-15.9,17.6
	c-1.2,7.9,5.4,14.2,11.2,18.5c15.6,10.6,34.3,15,52.6,18.5c0.5,2.4,1,4.8,1.5,7.3c-19.9-3.6-40.3-8.3-57.4-19.7
	c-8.1-5.5-16-14-14.8-24.5c1.1-11.4,11.1-18.7,20-24.3C22.4,112.2,21.3,109.8,20.1,107.5 M108.6,7.4c6.3-4.9,15.4-5.8,22.4-2
	c7.3,3.8,12.2,10.9,16.5,17.7c2.4-1.1,4.7-2.2,7.1-3.3c-0.9,7.6-1.5,15.2-2.6,22.8c-6.1-4.6-12.2-9.1-18.4-13.5
	c2.4-1.1,4.9-2.1,7.3-3.2c-3.8-6.4-8.6-13-16-15.5c-6.3-2.1-12.5,2-16.6,6.5c-8.9,10.1-13.5,23-17.3,35.6
	c-7.5,27.5-9.2,56.3-7.8,84.7c1.3,21.4,4.5,42.8,12.1,62.9c3.9,9.8,8.7,20,17.3,26.6c4.9,4,12.1,4,17,0.2
	c9.4-7.1,14.4-18.4,18.4-29.2c2.2,0.8,4.4,1.6,6.7,2.4c-5.2,13.4-11.8,28.4-25.5,35c-10,4.8-21.3-1.1-27.5-9.2
	c-8.4-10.2-13.2-22.7-16.9-35.2c-8-28.2-9.9-57.7-8.6-86.9c1.3-22.6,4.6-45.4,12.7-66.7C93.3,26,98.9,14.7,108.6,7.4"/>
<path class="st1" d="M54.3,64.1c6.7-1.7,13.7-2,20.5-3.3c-0.5,2.5-1,4.9-1.5,7.4c-1.4,0.2-4.2,0.5-5.6,0.7c1.7,1,3.3,2,5,3
	c-0.4,2.4-0.7,4.9-1.1,7.3c-3.9-2.1-7.8-4.2-11.7-6.4c-0.3,22.8,0.1,45.5-0.3,68.3c3.3-0.5,6.7-0.9,10.1-1.3
	c-0.4,6,0.7,11.8,1.6,17.7c-6-3.9-13.7-5.9-18.4-11.2c-0.3-25.4,0.1-50.8-0.1-76.1C53.1,68.1,52.6,65.5,54.3,64.1 M109.5,141.3
	c0.2,8.9,0.1,17.8,0,26.7c19.4-2.4,38.8-5.4,58.2-8c-11.2-6.5-22.7-12.3-34-18.7C126.5,136.2,117.5,140.6,109.5,141.3 M109.5,97.4
	c0.3,12.2,0.2,24.3,0,36.5c5.4-0.4,10.7-1.3,16-1.9c0.2-12.3,0-24.6,0.1-37C120.2,95.5,114.8,96.2,109.5,97.4 M132.5,93.8
	c0,12.9,0.1,25.8,0,38.8c14.1,8.1,28.5,15.5,42.7,23.4c0.3-22.7,0.2-45.5,0.2-68.2C161.1,89.8,146.8,91.9,132.5,93.8 M132.5,62.6
	c0.1,8.1-0.1,16.2,0.2,24.4c11.5-2.3,23.4-2.7,34.8-5.6C155.6,75.4,144.2,68.7,132.5,62.6 M96.5,57.8c9.9-1.5,19.8-2.9,29.8-4.3
	c4.5-1,8.3,2.3,12.1,4.2c14.4,8.2,29.4,15.5,43.6,24.1c0.9,26.3,0,52.6,0.3,78.9c0.5,2.4-0.9,4.9-3.5,4.9
	c-22.9,3.3-45.8,6.4-68.6,9.7c-6.2,1.7-11.2-3.3-16.3-5.9c-0.5-3-1-5.9-1.5-8.9c3.4,1.9,6.9,3.7,10.4,5.5c-0.1-8,0-16,0-23.9
	c-4.1,0.4-8.2,1-12.3,1.6c-0.1-2.3-0.2-4.7-0.4-7c4.2-0.6,8.3-1.2,12.5-1.7c0-13.1,0.8-26.3-0.1-39.4c-3.7-1.9-7.4-3.9-11.2-5.7
	c0.2-2.6,0.4-5.2,0.6-7.8c5.1,2.6,9.9,6,15.3,8c6.1-0.2,12.1-1.8,18.2-2.1c0.5-9.1,0.2-18.2,0.1-27.4c-10.2,1.5-20.5,2.9-30.7,4.4
	C95.4,62.7,95.9,60.3,96.5,57.8 M221.5,45.6c-6.3,2.8-8,12-2.8,16.6c4.8,5.5,14.7,2.9,16.7-3.9C238.8,50.4,229.1,41.2,221.5,45.6
	 M221.5,41.5c10.2-3.7,21.2,6.9,17.9,17.1c-2.2,10-16.4,13.9-23.4,6.3C208.4,58.2,211.7,44.1,221.5,41.5 M198.1,51.5
	c-4.8,1.2-7.2,7.9-3.4,11.4c2.8,3.6,8.7,2.8,10.7-1.2C208.6,57,203.7,49.8,198.1,51.5 M198.5,43.1c1.5-2.4,4.3-1.8,6.6-1.8
	c-1.7,2-3.4,4-5,5.9c8.6,0.5,13.8,11.8,7.6,18.1c-5.2,6.2-16.4,3.7-18.3-4.2C187.5,53.6,194.2,48.3,198.5,43.1 M169,49.1
	c0.1-5.5,5.7-10,11.1-7.6c4.5,1.5,4.8,6.7,3.9,10.7c5,5,3,14.3-3.9,16.2c-6.9,2.5-14.1-3.9-13-11c0.9,0,2.7-0.1,3.6-0.1
	c0.6,2.3,0.5,5.2,2.8,6.7c3.1,2.4,8.3,0.9,9.2-3.1c1.4-3.8-1.9-7.1-5.3-8.1c1.6-1.9,5.3-4.7,2.3-7.2c-3.2-3.5-6.7,1.1-7.1,4.3
	C171.7,49.8,169.9,49.3,169,49.1"/>
</svg>
